<?xml version="1.0" encoding="UTF-8" standalone="no"?>
<svg width="36px" height="26px" viewBox="0 0 36 26" version="1.1" xmlns="http://www.w3.org/2000/svg" xmlns:xlink="http://www.w3.org/1999/xlink">
    <!-- Generator: Sketch 46.2 (44496) - http://www.bohemiancoding.com/sketch -->
    <title>Developmer Resources</title>
    <desc>Created with Sketch.</desc>
    <defs></defs>
    <g id="Welcome" stroke="none" stroke-width="1" fill="none" fill-rule="evenodd">
        <g id="Customer-Support---Desktop" transform="translate(-1023.000000, -815.000000)">
            <g id="Developmer-Resources" transform="translate(1040.500000, 827.419355) rotate(-360.000000) translate(-1040.500000, -827.419355) translate(1023.000000, 815.000000)">
                <path d="M33.0281971,24.7247185 L2.83029808,24.7247185 C1.7922453,24.7247185 0.942929396,23.8754026 0.942929396,22.8373498 L0.942929396,2.83124177 C0.942929396,1.79318899 1.7922453,0.94387308 2.83029808,0.94387308 L33.0281971,0.94387308 C34.0681372,0.94387308 34.9155657,1.79318899 34.9155657,2.83124177 L34.9155657,22.8373498 C34.9155657,23.8754026 34.0681372,24.7247185 33.0281971,24.7247185" id="Fill-1" fill="#EAF9F7"></path>
                <path d="M33.0281971,24.7247185 L2.83029808,24.7247185 C1.7922453,24.7247185 0.942929396,23.8754026 0.942929396,22.8373498 L0.942929396,2.83124177 C0.942929396,1.79318899 1.7922453,0.94387308 2.83029808,0.94387308 L33.0281971,0.94387308 C34.0681372,0.94387308 34.9155657,1.79318899 34.9155657,2.83124177 L34.9155657,22.8373498 C34.9155657,23.8754026 34.0681372,24.7247185 33.0281971,24.7247185 Z" id="Stroke-3" stroke="#00B2A9"></path>
                <path d="M34.9155657,5.44185013 L34.9155657,2.83161924 C34.9155657,1.79356646 34.0681372,0.944250554 33.0281971,0.944250554 L2.83029808,0.944250554 C1.7922453,0.944250554 0.942929396,1.79356646 0.942929396,2.83161924 L0.942929396,5.44185013 L34.9155657,5.44185013 Z" id="Fill-5" fill="#00B2A9"></path>
                <path d="M34.9155657,5.44185013 L34.9155657,2.83161924 C34.9155657,1.79356646 34.0681372,0.944250554 33.0281971,0.944250554 L2.83029808,0.944250554 C1.7922453,0.944250554 0.942929396,1.79356646 0.942929396,2.83161924 L0.942929396,5.44185013 L34.9155657,5.44185013 Z" id="Stroke-7" stroke="#00B2A9" stroke-linecap="round" stroke-linejoin="round"></path>
                <path d="M13.4171153,18.4167549 C13.794589,18.8093276 13.794589,19.400074 13.4171153,19.7794351 C13.2208289,19.9606225 12.9924573,20.0512162 12.7489867,20.0512162 C12.494192,20.0512162 12.2526088,19.9606225 12.0544351,19.7794351 L7.80219341,15.4667976 C7.75689656,15.4516987 7.74179761,15.4215008 7.72669866,15.376204 C7.71348708,15.3592176 7.68140182,15.3460061 7.68140182,15.3460061 C7.65120392,15.2988218 7.65120392,15.2705113 7.63610497,15.2252145 C7.60779444,15.2082281 7.59080812,15.1780302 7.59080812,15.1629313 C7.57570917,15.1327334 7.57570917,15.0874365 7.56061022,15.0723376 C7.56061022,15.0270407 7.53041232,15.0119418 7.53041232,14.9968428 L7.53041232,14.8911502 C7.53041232,14.8609523 7.51531337,14.8458533 7.51531337,14.8005565 C7.51531337,14.7854576 7.53041232,14.7401607 7.53041232,14.7250618 L7.53041232,14.6193691 C7.53041232,14.5891712 7.56061022,14.5721849 7.56061022,14.5589733 C7.57570917,14.5136765 7.57570917,14.4834786 7.59080812,14.4362943 C7.59080812,14.4211954 7.60779444,14.4211954 7.60779444,14.4060964 C7.63610497,14.3607996 7.65120392,14.3004038 7.68140182,14.2702059 C7.68140182,14.2702059 7.68140182,14.240008 7.71348708,14.240008 C7.72669866,14.2098101 7.75689656,14.1645133 7.80219341,14.1343154 L12.0544351,9.82167791 C12.4337962,9.45741575 13.0547405,9.45741575 13.4171153,9.82167791 C13.794589,10.1991516 13.794589,10.804997 13.4171153,11.1824707 L9.83111475,14.8005565 L13.4171153,18.4167549 Z" id="Fill-9" fill="#3DC4BE"></path>
                <path d="M15.6142011,18.9004875 L19.3209932,10.0789263 C19.504068,9.65615567 19.985347,9.45798196 20.4251039,9.64105672 C20.8346629,9.80714517 21.0309493,10.3054105 20.8478745,10.7149695 L17.1429698,19.5516297 C17.0051919,19.8687076 16.6881139,20.049895 16.3691486,20.049895 C16.2804423,20.049895 16.1577633,20.0366834 16.0671696,19.9913866 C15.6293001,19.8234108 15.4330137,19.3251455 15.6142011,18.9004875" id="Fill-11" fill="#3DC4BE"></path>
                <path d="M28.178792,15.3450624 C28.178792,15.3450624 28.178792,15.3601613 28.1618056,15.3601613 C28.1334951,15.3903592 28.1014098,15.4356561 28.056113,15.465854 L23.8038713,19.7784914 C23.622684,19.9596788 23.3641144,20.0502725 23.1225313,20.0502725 C22.8677365,20.0502725 22.6393649,19.9596788 22.4430785,19.7784914 C22.0656048,19.3991303 22.0656048,18.8102713 22.4430785,18.4158112 L26.029079,14.7996128 L22.4430785,11.1834144 C22.0656048,10.8059407 22.0656048,10.2000953 22.4430785,9.82262159 C22.8054533,9.45835943 23.4245102,9.45835943 23.8038713,9.82262159 L28.056113,14.1333717 C28.1014098,14.1654569 28.1334951,14.2088664 28.1618056,14.2409517 C28.178792,14.2409517 28.178792,14.2711496 28.178792,14.2711496 C28.2089899,14.329658 28.2373004,14.3617433 28.2523993,14.4070401 C28.2523993,14.4221391 28.2674983,14.4221391 28.2674983,14.437238 C28.2844846,14.4825349 28.2844846,14.5127328 28.3127951,14.5731286 C28.3127951,14.5882275 28.3278941,14.5882275 28.3278941,14.6184254 L28.3278941,14.7241181 C28.3278941,14.739217 28.3448804,14.7845139 28.3448804,14.7996128 C28.3448804,14.8147118 28.3278941,14.8600086 28.3278941,14.8751076 L28.3278941,14.9958992 C28.3278941,15.0128855 28.3127951,15.0128855 28.3127951,15.0279844 C28.2844846,15.0883802 28.2844846,15.1336771 28.2674983,15.163875 C28.2674983,15.1789739 28.2523993,15.1789739 28.2523993,15.2091718 C28.2373004,15.2393697 28.2089899,15.2846666 28.178792,15.3450624" id="Fill-13" fill="#3DC4BE"></path>
                <path d="M4.32320671,3.56372955 C4.32320671,4.18278648 3.82116664,4.68293918 3.20399708,4.68293918 C2.58682752,4.68293918 2.08478745,4.18278648 2.08478745,3.56372955 C2.08478745,2.94655999 2.58682752,2.44640729 3.20399708,2.44640729 C3.82116664,2.44640729 4.32320671,2.94655999 4.32320671,3.56372955" id="Fill-15" fill="#FFFFFF"></path>
                <path d="M7.51550211,3.56372955 C7.51550211,4.18278648 7.01346204,4.68293918 6.39629248,4.68293918 C5.77912292,4.68293918 5.27708285,4.18278648 5.27708285,3.56372955 C5.27708285,2.94655999 5.77912292,2.44640729 6.39629248,2.44640729 C7.01346204,2.44640729 7.51550211,2.94655999 7.51550211,3.56372955" id="Fill-17" fill="#FFFFFF"></path>
                <path d="M10.7077975,3.56372955 C10.7077975,4.18278648 10.2076448,4.68293918 9.59047524,4.68293918 C8.97141831,4.68293918 8.47126561,4.18278648 8.47126561,3.56372955 C8.47126561,2.94655999 8.97141831,2.44640729 9.59047524,2.44640729 C10.2076448,2.44640729 10.7077975,2.94655999 10.7077975,3.56372955" id="Fill-19" fill="#FFFFFF"></path>
            </g>
        </g>
    </g>
</svg>