<?xml version="1.0" encoding="UTF-8" standalone="no"?>
<svg width="45px" height="45px" viewBox="0 0 45 45" version="1.1" xmlns="http://www.w3.org/2000/svg" xmlns:xlink="http://www.w3.org/1999/xlink">
    <!-- Generator: Sketch 46.2 (44496) - http://www.bohemiancoding.com/sketch -->
    <title>Help Center</title>
    <desc>Created with Sketch.</desc>
    <defs></defs>
    <g id="Welcome" stroke="none" stroke-width="1" fill="none" fill-rule="evenodd">
        <g id="Customer-Support---Desktop" transform="translate(-698.000000, -458.000000)">
            <g id="Help-Center" transform="translate(699.000000, 459.000000)">
                <path d="M21.5589571,31.6274886 C15.8858655,31.6274886 11.2855246,27.0271477 11.2855246,21.3540561 C11.2855246,15.6809644 15.8858655,11.0806235 21.5589571,11.0806235 C27.2348867,11.0806235 31.8352276,15.6809644 31.8352276,21.3540561 C31.8352276,27.0271477 27.2348867,31.6274886 21.5589571,31.6274886 M21.5589571,2.26874282 C11.0187559,2.26874282 2.47364388,10.8138548 2.47364388,21.3540561 C2.47364388,31.8942573 11.0187559,40.4393693 21.5589571,40.4393693 C32.1019963,40.4393693 40.6471083,31.8942573 40.6471083,21.3540561 C40.6471083,10.8138548 32.1019963,2.26874282 21.5589571,2.26874282" id="Fill-1" fill="#C1E5E1"></path>
                <path d="M21.5589571,31.6274886 C15.8858655,31.6274886 11.2855246,27.0271477 11.2855246,21.3540561 C11.2855246,15.6809644 15.8858655,11.0806235 21.5589571,11.0806235 C27.2348867,11.0806235 31.8352276,15.6809644 31.8352276,21.3540561 C31.8352276,27.0271477 27.2348867,31.6274886 21.5589571,31.6274886 Z M21.5589571,2.26874282 C11.0187559,2.26874282 2.47364388,10.8138548 2.47364388,21.3540561 C2.47364388,31.8942573 11.0187559,40.4393693 21.5589571,40.4393693 C32.1019963,40.4393693 40.6471083,31.8942573 40.6471083,21.3540561 C40.6471083,10.8138548 32.1019963,2.26874282 21.5589571,2.26874282 Z" id="Stroke-3" stroke="#00B2A9" stroke-linecap="round" stroke-linejoin="round"></path>
                <path d="M22.6231939,13.8734647 L20.4947203,13.8734647 C18.9338397,13.8734647 17.6567555,12.5963805 17.6567555,11.0354999 L17.6567555,3.11474013 C17.6567555,1.55385949 18.9338397,0.276775334 20.4947203,0.276775334 L22.6231939,0.276775334 C24.1869125,0.276775334 25.4611587,1.55385949 25.4611587,3.11474013 L25.4611587,11.0354999 C25.4611587,12.5963805 24.1869125,13.8734647 22.6231939,13.8734647" id="Fill-5" fill="#FFFFFF"></path>
                <path d="M22.6231939,13.8734647 L20.4947203,13.8734647 C18.9338397,13.8734647 17.6567555,12.5963805 17.6567555,11.0354999 L17.6567555,3.11474013 C17.6567555,1.55385949 18.9338397,0.276775334 20.4947203,0.276775334 L22.6231939,0.276775334 C24.1869125,0.276775334 25.4611587,1.55385949 25.4611587,3.11474013 L25.4611587,11.0354999 C25.4611587,12.5963805 24.1869125,13.8734647 22.6231939,13.8734647 Z" id="Stroke-7" stroke="#00B2A9" stroke-linecap="round" stroke-linejoin="round"></path>
                <path d="M22.6231939,42.8448283 L20.4947203,42.8448283 C18.9338397,42.8448283 17.6567555,41.5677441 17.6567555,40.0068635 L17.6567555,32.0832658 C17.6567555,30.5252231 18.9338397,29.245301 20.4947203,29.245301 L22.6231939,29.245301 C24.1869125,29.245301 25.4611587,30.5252231 25.4611587,32.0832658 L25.4611587,40.0068635 C25.4611587,41.5677441 24.1869125,42.8448283 22.6231939,42.8448283" id="Fill-9" fill="#FFFFFF"></path>
                <path d="M22.6231939,42.8448283 L20.4947203,42.8448283 C18.9338397,42.8448283 17.6567555,41.5677441 17.6567555,40.0068635 L17.6567555,32.0832658 C17.6567555,30.5252231 18.9338397,29.245301 20.4947203,29.245301 L22.6231939,29.245301 C24.1869125,29.245301 25.4611587,30.5252231 25.4611587,32.0832658 L25.4611587,40.0068635 C25.4611587,41.5677441 24.1869125,42.8448283 22.6231939,42.8448283 Z" id="Stroke-11" stroke="#00B2A9" stroke-linecap="round" stroke-linejoin="round"></path>
                <path d="M29.2470037,22.6243291 L29.2470037,20.4958555 C29.2470037,18.9349749 30.5240879,17.6578907 32.0849685,17.6578907 L40.0057283,17.6578907 C41.5694469,17.6578907 42.8436931,18.9349749 42.8436931,20.4958555 L42.8436931,22.6243291 C42.8436931,24.1852097 41.5694469,25.4622939 40.0057283,25.4622939 L32.0849685,25.4622939 C30.5240879,25.4622939 29.2470037,24.1852097 29.2470037,22.6243291" id="Fill-13" fill="#FFFFFF"></path>
                <path d="M29.2470037,22.6243291 L29.2470037,20.4958555 C29.2470037,18.9349749 30.5240879,17.6578907 32.0849685,17.6578907 L40.0057283,17.6578907 C41.5694469,17.6578907 42.8436931,18.9349749 42.8436931,20.4958555 L42.8436931,22.6243291 C42.8436931,24.1852097 41.5694469,25.4622939 40.0057283,25.4622939 L32.0849685,25.4622939 C30.5240879,25.4622939 29.2470037,24.1852097 29.2470037,22.6243291 Z" id="Stroke-15" stroke="#00B2A9" stroke-linecap="round" stroke-linejoin="round"></path>
                <path d="M0.277059131,22.6243291 L0.277059131,20.4958555 C0.277059131,18.9349749 1.55130532,17.6578907 3.11502392,17.6578907 L11.0357837,17.6578907 C12.5966643,17.6578907 13.8737485,18.9349749 13.8737485,20.4958555 L13.8737485,22.6243291 C13.8737485,24.1852097 12.5966643,25.4622939 11.0357837,25.4622939 L3.11502392,25.4622939 C1.55130532,25.4622939 0.277059131,24.1852097 0.277059131,22.6243291" id="Fill-17" fill="#FFFFFF"></path>
                <path d="M0.277059131,22.6243291 L0.277059131,20.4958555 C0.277059131,18.9349749 1.55130532,17.6578907 3.11502392,17.6578907 L11.0357837,17.6578907 C12.5966643,17.6578907 13.8737485,18.9349749 13.8737485,20.4958555 L13.8737485,22.6243291 C13.8737485,24.1852097 12.5966643,25.4622939 11.0357837,25.4622939 L3.11502392,25.4622939 C1.55130532,25.4622939 0.277059131,24.1852097 0.277059131,22.6243291 Z" id="Stroke-19" stroke="#00B2A9" stroke-linecap="round" stroke-linejoin="round"></path>
            </g>
        </g>
    </g>
</svg>