<?xml version="1.0" standalone="no"?>
<!DOCTYPE svg PUBLIC "-//W3C//DTD SVG 1.1//EN" "http://www.w3.org/Graphics/SVG/1.1/DTD/svg11.dtd" >
<svg xmlns="http://www.w3.org/2000/svg">
<metadata></metadata>
<defs>
<font id="LLAkkuratWeb-Bolditalic" horiz-adv-x="1167" >
<font-face units-per-em="2048" ascent="1604" descent="-444" />
<missing-glyph horiz-adv-x="423" />
<glyph horiz-adv-x="0" />
<glyph horiz-adv-x="0" />
<glyph unicode="&#xd;" horiz-adv-x="423" />
<glyph unicode=" "  horiz-adv-x="423" />
<glyph unicode="&#x09;" horiz-adv-x="423" />
<glyph unicode="&#xa0;" horiz-adv-x="423" />
<glyph unicode="!" horiz-adv-x="694" d="M133 0l49 272h271l-50 -272h-270zM268 434l41 563l82 455h268l-81 -455l-156 -563h-154z" />
<glyph unicode="&#x22;" horiz-adv-x="1071" d="M233 803l11 350l53 299h272l-53 -299l-113 -350h-170zM698 803l11 350l53 299h272l-53 -299l-113 -350h-170z" />
<glyph unicode="#" horiz-adv-x="1544" d="M70 379l34 196h279l86 273h-250l35 199h278l121 376h209l-119 -376h287l121 376h209l-119 -376h248l-35 -199h-278l-84 -273h247l-34 -196h-279l-119 -379h-211l119 379h-287l-118 -379h-211l118 379h-247zM596 578h283l86 268h-283z" />
<glyph unicode="$" d="M-2 446q0 16 4 48h250q-2 -12 -2 -37q0 -82 47 -142q52 -66 152 -86l69 410q-14 3 -30 7t-35.5 9.5t-30.5 8.5q-137 38 -205 114q-86 95 -86 217q0 205 172 338q150 115 359 115l34 188h150l-35 -204q170 -38 266 -154q92 -113 92 -246q0 -5 -1 -16.5t-1 -16.5h-252 q0 3 1.5 11t1.5 12q0 63 -39 119q-32 46 -107 73l-65 -374l67 -17q140 -35 226.5 -126.5t86.5 -225.5q0 -103 -44 -195.5t-123 -156.5q-143 -114 -361 -117l-33 -180h-151l35 192q-199 32 -318 174q-94 116 -94 258zM383 1024q0 -45 37 -83.5t84 -51.5q4 -1 23.5 -8t31.5 -9 l64 361q-98 -7 -160 -53q-37 -28 -58.5 -69.5t-21.5 -86.5zM596 219q94 6 158 55q82 66 82 166q0 113 -142 156l-28 8z" />
<glyph unicode="%" horiz-adv-x="1845" d="M152 1016q0 75 4 100q27 152 108 242q112 121 271 121q131 0 223 -86q98 -94 98 -238q0 -75 -4 -100q-27 -150 -109 -242q-112 -121 -270 -121q-131 0 -223 86q-98 94 -98 238zM219 78l1286 1407l125 -125l-1288 -1403zM350 1012q0 -63 39 -105q36 -39 94 -39q49 0 92 37 q55 50 76 168q6 29 6 86q0 63 -39 105q-36 39 -94 39q-49 0 -92 -37q-55 -50 -76 -168q-6 -29 -6 -86zM993 299q0 75 4 100q27 150 109 242q112 121 270 121q131 0 223 -86q99 -95 99 -238q0 -75 -4 -100q-27 -150 -109 -242q-112 -121 -270 -121q-131 0 -223 86 q-99 95 -99 238zM1192 295q0 -63 39 -105q35 -38 94 -38q51 0 92 36q55 50 76 168q6 29 6 86q0 63 -39 105q-36 39 -94 39q-47 0 -92 -39q-56 -50 -76 -166q-6 -29 -6 -86z" />
<glyph unicode="&#x26;" horiz-adv-x="1515" d="M72 379q0 22 8 80q42 243 323 377q-53 79 -78.5 137t-25.5 125q0 30 6 65q27 155 142.5 243.5t269.5 88.5q31 0 45 -2q146 -12 243 -100.5t97 -225.5q0 -31 -6 -65q-23 -131 -109 -215.5t-231 -149.5l202 -295q40 52 78 213q7 29 12 58t10 59.5t7 44.5h377l-35 -203h-168 q-59 -246 -154 -358l179 -256h-291l-62 94q-174 -119 -374 -119q-15 0 -60 5q-176 15 -290.5 123.5t-114.5 275.5zM309 406q0 -89 62.5 -143t158.5 -62q14 -2 45 -2q134 0 213 69l-264 396q-49 -23 -75.5 -38t-59.5 -40.5t-51 -59t-25 -77.5q-4 -28 -4 -43zM537 1116 q0 -15 3 -30t6 -27t11 -28l12.5 -25t16 -26t15.5 -23t17.5 -24l16.5 -22q104 43 141 72q67 51 80 129q4 24 4 35q0 59 -37 95.5t-98 41.5h-18q-62 0 -109.5 -35.5t-58.5 -101.5q-2 -10 -2 -31z" />
<glyph unicode="'" horiz-adv-x="563" d="M211 803l8 350l53 301h275l-53 -301l-113 -350h-170z" />
<glyph unicode="(" horiz-adv-x="667" d="M125 453q0 362 143 665.5t422 528.5l123 -131q-244 -229 -362.5 -498t-118.5 -604q0 -291 174 -641l-162 -82q-219 366 -219 762z" />
<glyph unicode=")" horiz-adv-x="667" d="M-158 -178q244 230 363 498.5t119 603.5q0 291 -174 641l161 82q219 -366 219 -762q0 -362 -143 -665.5t-422 -528.5z" />
<glyph unicode="*" horiz-adv-x="1071" d="M133 1047l98 206l273 -123l31 328h229l-80 -330l313 123l39 -219l-323 -78l159 -256l-192 -133l-127 285l-225 -285l-156 133l252 263z" />
<glyph unicode="+" horiz-adv-x="1386" d="M86 522v219h467v480h231v-480h467v-219h-467v-512h-231v512h-467z" />
<glyph unicode="," horiz-adv-x="593" d="M8 -229q92 39 128 89t52 140h-155l57 319h313l-51 -294q-25 -143 -89.5 -231t-203.5 -142z" />
<glyph unicode="-" horiz-adv-x="944" d="M84 516l41 229h702l-41 -229h-702z" />
<glyph unicode="." horiz-adv-x="595" d="M20 0l58 319h313l-57 -319h-314z" />
<glyph unicode="/" horiz-adv-x="792" d="M-135 -27l895 1506h188l-895 -1506h-188z" />
<glyph unicode="0" d="M53 471q-2 106 27 285q17 97 37.5 174.5t52.5 158.5t79.5 147t108.5 112q136 102 297 102q114 0 210 -45t155 -129q92 -130 92 -322q0 -94 -31 -284q-17 -97 -37.5 -174.5t-52.5 -158.5t-79.5 -147t-108.5 -112q-140 -105 -297 -105q-113 0 -208 46t-155 131 q-49 69 -68.5 144.5t-21.5 176.5zM301 457q0 -78 31 -142q25 -47 74 -75.5t106 -28.5q103 0 176 84t103 229q1 5 11.5 52t12.5 57.5t11 53t11.5 59.5t8.5 53.5t8 59.5t4 53t2 57q0 77 -31 141q-25 47 -74 75.5t-106 28.5q-103 0 -176 -84q-71 -83 -102 -229 q-3 -12 -13.5 -59.5t-14.5 -66t-12.5 -60.5t-12 -67.5t-8.5 -61.5t-7 -67t-2 -62z" />
<glyph unicode="1" d="M250 879l51 292l395 252h222l-252 -1423h-258l196 1106z" />
<glyph unicode="2" d="M-10 0l41 231l678 625q47 43 77.5 100t30.5 115q0 74 -48.5 115t-123.5 41q-83 0 -138.5 -53t-66.5 -136l-2 -16h-262l6 39q28 176 153 282.5t314 106.5q84 0 159.5 -22.5t135.5 -65.5t95.5 -113.5t35.5 -158.5q0 -211 -219 -412l-485 -447h577l-41 -231h-917z" />
<glyph unicode="3" d="M27 379q0 17 4 53h250q0 -4 -1 -11t-1 -11q0 -87 47 -140q60 -71 163 -71q108 0 173 59q73 67 73 174q0 87 -70.5 141t-164.5 54h-86l39 223h106q107 0 181.5 53t74.5 152q0 69 -45 114q-58 58 -133 58q-99 0 -164 -56q-61 -54 -76 -129h-258q29 162 146 273 q144 135 381 135q176 0 294.5 -104.5t118.5 -262.5q0 -168 -110 -278q-63 -63 -156 -84q86 -33 134 -113t48 -178q0 -91 -30 -160.5t-91 -136.5q-69 -77 -178.5 -118.5t-230.5 -41.5q-94 0 -177.5 33.5t-144.5 93.5q-54 52 -85 127t-31 152z" />
<glyph unicode="4" d="M-20 287l43 241l684 895h299l-691 -905h347l57 334h258l-59 -334h174l-41 -231h-174l-50 -287h-258l52 287h-641z" />
<glyph unicode="5" d="M55 395v21h256v-15q0 -82 54 -139q60 -63 161 -63q140 0 217 125q54 89 54 204q0 99 -57 153t-156 54q-57 0 -111 -25.5t-92 -70.5l-248 55l170 729h848l-41 -229h-631l-76 -322q97 84 246 84q194 0 303 -115.5t109 -308.5q0 -196 -105 -344q-71 -101 -181 -159t-247 -58 q-216 0 -346 121q-62 57 -94.5 136.5t-32.5 166.5z" />
<glyph unicode="6" d="M82 465q0 142 22 266q17 93 34.5 165.5t48 159t78 158t108.5 121.5q135 115 319 115q234 0 348 -145q78 -97 78 -228v-4h-258q0 49 -31 92q-49 68 -151 68q-97 0 -168 -78q-71 -77 -107 -209q-17 -58 -22 -88q94 94 252 94q212 0 325 -135q101 -123 101 -282 q0 -153 -61.5 -280t-181.5 -204.5t-277 -77.5q-101 0 -189 37.5t-145 100.5q-123 135 -123 354zM338 424q0 -97 53 -156q58 -65 154 -65q86 0 155 69q48 46 73.5 113.5t25.5 138.5q0 96 -54 156q-58 65 -153 65q-87 0 -156 -69q-48 -46 -73 -113t-25 -139z" />
<glyph unicode="7" d="M76 0l760 1194h-680l41 229h981l-35 -204l-770 -1219h-297z" />
<glyph unicode="8" d="M35 379q0 155 102 266q78 84 178 121q-61 43 -99 117.5t-38 152.5q0 120 66 216t174 147t235 51q213 0 332 -111q119 -113 119 -258q0 -157 -103 -266q-60 -63 -137 -92q74 -44 115 -125t41 -170q0 -103 -42.5 -190t-113.5 -144t-163 -89t-193 -32q-218 0 -352 125 q-121 114 -121 281zM295 397q0 -83 59 -139q63 -57 166 -57q105 0 174.5 65t69.5 168q0 83 -59 139q-64 58 -166 58q-105 0 -174.5 -65.5t-69.5 -168.5zM434 1024q0 -74 60 -127q50 -45 139 -45q93 0 152 56.5t59 148.5q0 72 -60 125q-53 47 -139 47q-93 0 -152 -56.5 t-59 -148.5z" />
<glyph unicode="9" d="M55 342q0 4 1 13.5t1 13.5h254q-2 -8 -2 -25q0 -62 49 -111q40 -40 134 -40q75 0 133 45q45 36 75 88q62 102 86 243q-42 -51 -112 -73.5t-144 -22.5q-197 0 -309 115q-115 118 -115 305q0 152 62 278t182.5 202.5t276.5 76.5q219 0 337.5 -132.5t116.5 -356.5 q0 -143 -22 -267q-13 -71 -24.5 -125t-34.5 -129.5t-49 -133t-66.5 -117t-89.5 -99.5q-135 -115 -318 -115q-232 0 -348 152q-74 96 -74 215zM365 899q0 -100 56 -159.5t154 -59.5q80 0 139 50.5t86 122t27 148.5q0 102 -53 162t-153 60q-63 0 -113 -29t-80.5 -76.5 t-46.5 -103.5t-16 -115z" />
<glyph unicode=":" horiz-adv-x="653" d="M53 0l56 309h309l-56 -309h-309zM188 756l54 309h309l-53 -309h-310z" />
<glyph unicode=";" horiz-adv-x="653" d="M23 -227q90 38 128 89t52 138h-156l55 309h312l-49 -284q-25 -143 -88.5 -230t-202.5 -141zM180 756l56 309h311l-55 -309h-312z" />
<glyph unicode="&#x3c;" horiz-adv-x="950" d="M25 662l657 659l143 -143l-520 -519l520 -520l-141 -139z" />
<glyph unicode="=" horiz-adv-x="1409" d="M154 264v203h1044v-203h-1044zM154 672v200h1044v-200h-1044z" />
<glyph unicode="&#x3e;" horiz-adv-x="950" d="M125 139l520 520l-520 519l143 143l658 -659l-660 -662z" />
<glyph unicode="?" horiz-adv-x="1064" d="M102 1049q15 96 45 167t91 130q140 137 370 137q120 0 221 -42t164.5 -127.5t63.5 -199.5q0 -36 -6 -74q-17 -99 -74.5 -170t-149.5 -133q-7 -5 -38 -25t-37.5 -25t-31.5 -22.5t-31.5 -25t-24.5 -25t-25 -31t-18 -33.5t-17.5 -41t-11.5 -46l-10 -49h-254q2 9 8.5 50.5 t10 59t11 48t17.5 53.5q20 50 47 89.5t61 69t62 49t70.5 46t66.5 43.5q90 62 104 141q2 12 2 31q0 74 -57 115.5t-139 41.5q-98 0 -160 -59q-27 -27 -44 -67t-19 -76h-267zM246 0l51 287h287l-52 -287h-286z" />
<glyph unicode="@" horiz-adv-x="1884" d="M137 561q0 193 68.5 363t187 291.5t284 191.5t353.5 70q150 0 283 -45.5t232.5 -128t157.5 -207t58 -273.5q0 -111 -30.5 -216t-88 -190.5t-150 -137.5t-206.5 -52q-73 0 -121 40.5t-57 88.5q-34 -59 -102 -93t-142 -34q-143 0 -231 109q-70 85 -70 217q0 187 90 326 q52 78 127 123t168 45q70 0 131 -34t84 -89l49 94h172l-124 -508q-10 -43 3 -72.5t58 -29.5q99 0 170 137q59 115 59 291q0 139 -72.5 241t-190.5 151.5t-265 49.5q-149 0 -276 -59t-211.5 -157t-131.5 -225.5t-47 -265.5q0 -232 140 -378q96 -101 215.5 -139t292.5 -38 q83 0 200.5 30.5t202.5 72.5l-33 -195q-79 -47 -200.5 -75.5t-215.5 -28.5q-195 0 -349 55.5t-277 181.5q-92 95 -143.5 224t-51.5 278zM784 571q0 -155 129 -155q52 0 91 29t59.5 75.5t30.5 96t10 98.5q0 59 -31 103t-98 44q-61 0 -106 -47.5t-65 -111.5t-20 -132z" />
<glyph unicode="A" horiz-adv-x="1294" d="M-143 0l766 1452h303l254 -1452h-277l-45 279h-577l-144 -279h-280zM401 516h418l-100 612z" />
<glyph unicode="B" horiz-adv-x="1359" d="M41 0l256 1452h559q209 0 326 -86q58 -43 93.5 -115t35.5 -147q0 -116 -61.5 -215.5t-172.5 -145.5q73 -37 115.5 -113.5t42.5 -162.5q0 -113 -54 -212t-147 -163q-86 -58 -181.5 -75t-227.5 -17h-584zM346 238h318q62 0 113.5 12t95 37.5t68 71.5t24.5 108 q0 84 -59.5 129t-155.5 45h-332zM457 860h323q115 0 184.5 49t69.5 158q0 67 -52.5 112.5t-150.5 45.5h-311z" />
<glyph unicode="C" horiz-adv-x="1286" d="M72 549q0 200 66.5 412.5t189.5 336.5q181 181 428 181q226 0 372 -140q72 -69 109 -164t37 -200h-270q0 115 -72 190q-66 72 -182 72q-128 0 -226 -98q-60 -59 -104 -170.5t-63 -221t-19 -202.5q0 -164 84 -252q77 -80 201 -80t208 78q67 64 95 151h270 q-17 -82 -63.5 -163t-112.5 -146q-166 -160 -406 -160q-112 0 -213.5 38t-175.5 114q-153 153 -153 424z" />
<glyph unicode="D" horiz-adv-x="1392" d="M41 0l256 1452h487q130 0 246.5 -49t188.5 -146q102 -137 102 -333q0 -94 -15 -199t-47 -218.5t-92.5 -216t-140.5 -165.5q-162 -125 -420 -125h-565zM348 238h287q157 0 248 94q80 84 129 260.5t49 312.5q0 124 -53 199q-37 52 -104.5 81t-153.5 29h-230z" />
<glyph unicode="E" horiz-adv-x="1286" d="M41 0l258 1452h1024l-43 -240h-758l-61 -338h669l-43 -237h-669l-70 -397h770l-43 -240h-1034z" />
<glyph unicode="F" horiz-adv-x="1200" d="M41 0l258 1452h993l-43 -240h-727l-69 -389h653l-41 -239h-655l-103 -584h-266z" />
<glyph unicode="G" horiz-adv-x="1374" d="M72 549q0 200 66.5 412.5t189.5 336.5q181 181 432 181q246 0 389 -146q64 -66 99.5 -153.5t35.5 -180.5h-270q0 90 -62 162q-66 76 -198 76q-134 0 -232 -98q-60 -59 -104 -170.5t-63 -221t-19 -202.5q0 -164 84 -252q36 -37 91 -58.5t110 -21.5q145 0 235 94 q85 89 107 209q6 36 10 59h-346l39 220h598l-142 -795h-174v121q-47 -63 -138.5 -104.5t-205.5 -41.5q-234 0 -379 148q-153 153 -153 426z" />
<glyph unicode="H" horiz-adv-x="1462" d="M41 0l256 1452h266l-100 -567h592l100 567h266l-256 -1452h-266l111 633h-592l-111 -633h-266z" />
<glyph unicode="I" horiz-adv-x="608" d="M41 0l256 1452h270l-256 -1452h-270z" />
<glyph unicode="J" horiz-adv-x="1024" d="M-53 369q0 39 6 86h256q-6 -37 -6 -72q0 -79 43 -124.5t123 -45.5q73 0 122.5 50t63.5 128l186 1061h267l-189 -1063q-34 -194 -157 -305t-304 -111q-228 0 -340 152q-71 99 -71 244z" />
<glyph unicode="K" horiz-adv-x="1374" d="M41 0l256 1452h266l-117 -653l678 653h340l-583 -563l379 -889h-297l-281 694l-307 -297l-70 -397h-264z" />
<glyph unicode="L" horiz-adv-x="1126" d="M41 0l258 1452h264l-213 -1202h674l-45 -250h-938z" />
<glyph unicode="M" horiz-adv-x="1796" d="M41 0l256 1452h332l205 -1049l573 1049h348l-256 -1452h-258l195 1055l-566 -1035h-194l-203 1029l-174 -1049h-258z" />
<glyph unicode="N" horiz-adv-x="1501" d="M41 0l256 1452h283l446 -1030l172 1030h260l-256 -1452h-272l-455 1042l-172 -1042h-262z" />
<glyph unicode="O" horiz-adv-x="1374" d="M72 549q0 200 66.5 411.5t189.5 335.5q181 181 428 181q113 0 215 -38t176 -114q156 -156 156 -424q0 -200 -65.5 -411.5t-188.5 -335.5q-181 -181 -435 -181q-112 0 -213.5 38t-175.5 114q-153 153 -153 424zM338 545q0 -164 84 -252q80 -80 196 -80q134 0 230 96 q87 86 135.5 265t48.5 331q0 164 -84 252q-80 80 -196 80q-130 0 -228 -98q-60 -59 -104 -170.5t-63 -221t-19 -202.5z" />
<glyph unicode="P" horiz-adv-x="1271" d="M41 0l256 1452h543q197 0 328.5 -114t131.5 -296q0 -168 -75 -287t-204 -177t-298 -58h-326l-92 -520h-264zM438 752h295q138 0 216.5 65.5t78.5 198.5q0 92 -59 148.5t-170 56.5h-279z" />
<glyph unicode="Q" horiz-adv-x="1374" d="M72 549q0 200 66.5 411.5t189.5 335.5q181 181 428 181q113 0 215 -38t176 -114q156 -156 156 -424q0 -200 -65.5 -411.5t-188.5 -335.5l-33 -31l100 -158l-172 -108l-100 159q-107 -43 -230 -43q-112 0 -213.5 38t-175.5 114q-153 153 -153 424zM338 545q0 -164 84 -252 q80 -80 196 -80q46 0 97 14l-127 205l170 105l121 -193q72 97 112.5 261t40.5 300q0 164 -84 252q-80 80 -196 80q-130 0 -228 -98q-60 -59 -104 -170.5t-63 -221t-19 -202.5z" />
<glyph unicode="R" horiz-adv-x="1366" d="M41 0l256 1452h573q206 0 336.5 -113.5t130.5 -287.5q0 -179 -96.5 -300t-251.5 -161l178 -590h-274l-166 557h-324l-98 -557h-264zM444 788h326q132 0 213.5 60t81.5 186q0 86 -61.5 136.5t-174.5 50.5h-309z" />
<glyph unicode="S" horiz-adv-x="1273" d="M8 449v32h273q0 -95 57 -170q46 -61 110.5 -83.5t157.5 -22.5q68 0 130.5 21t108.5 71t46 119q0 62 -39 105t-100 57l-308 73q-127 30 -213 129t-86 232q0 207 172 344q159 123 383 123q256 0 402 -146q129 -129 129 -301v-14h-273q0 111 -81 171t-195 60q-97 0 -174 -51 q-90 -62 -90 -154q0 -60 36 -96t81 -47l301 -72q140 -33 232.5 -135.5t92.5 -251.5q0 -192 -137 -319q-80 -73 -193 -111.5t-237 -38.5q-278 0 -442 156q-67 64 -105.5 148.5t-38.5 171.5z" />
<glyph unicode="T" horiz-adv-x="1146" d="M96 1206l45 246h1112l-45 -246h-424l-211 -1206h-266l213 1206h-424z" />
<glyph unicode="U" horiz-adv-x="1421" d="M100 467q0 61 13 141l147 844h268l-151 -864q-10 -58 -10 -101q0 -134 75 -204t209 -70t215.5 85.5t108.5 236.5l164 917h266l-166 -944q-44 -247 -198 -391t-396 -144q-119 0 -217.5 30.5t-172 90.5t-114.5 155.5t-41 217.5z" />
<glyph unicode="V" horiz-adv-x="1212" d="M104 1452h267l151 -1126l551 1126h285l-735 -1452h-295z" />
<glyph unicode="W" horiz-adv-x="1806" d="M172 1452h244l24 -1024l469 1004h219l127 -1004l377 1024h258l-540 -1452h-269l-127 1012l-475 -1012h-266z" />
<glyph unicode="X" horiz-adv-x="1228" d="M-125 0l584 739l-322 713h277l225 -512l410 512h305l-578 -715l326 -737h-279l-229 532l-416 -532h-303z" />
<glyph unicode="Y" horiz-adv-x="1208" d="M80 1452h270l242 -641l471 641h295l-668 -895l-98 -557h-266l98 557z" />
<glyph unicode="Z" horiz-adv-x="1257" d="M-63 0l47 260l938 952h-758l43 240h1102l-47 -260l-936 -952h790l-43 -240h-1136z" />
<glyph unicode="[" horiz-adv-x="739" d="M20 -303l336 1900h482l-31 -174h-287l-274 -1552h286l-30 -174h-482z" />
<glyph unicode="\" horiz-adv-x="792" d="M125 1479h174l363 -1506h-175z" />
<glyph unicode="]" horiz-adv-x="739" d="M-139 -303l30 174h287l275 1552h-287l31 174h481l-336 -1900h-481z" />
<glyph unicode="^" horiz-adv-x="1101" d="M129 827l348 652h203l346 -652h-283l-170 334l-172 -334h-272z" />
<glyph unicode="_" horiz-adv-x="1198" d="M-63 -4h1103v-180h-1103v180z" />
<glyph unicode="`" horiz-adv-x="518" d="M137 1389l115 186l377 -283l-82 -133z" />
<glyph unicode="a" horiz-adv-x="1208" d="M43 426q0 143 49.5 287t140.5 237q142 142 318 142q101 0 181.5 -41t113.5 -105l47 119h225l-188 -1065h-207v121q-49 -71 -128 -109.5t-159 -38.5q-165 0 -272 113q-121 126 -121 340zM303 428q0 -105 50 -171.5t151 -66.5q82 0 160 78q63 65 95 167t32 206 q0 100 -49 168t-148 68q-90 0 -166 -76q-60 -60 -92.5 -166.5t-32.5 -206.5z" />
<glyph unicode="b" horiz-adv-x="1216" d="M31 0l260 1477h258l-82 -478q51 47 117 70t129 23q167 0 276 -115q119 -124 119 -338q0 -181 -72 -346t-211 -254q-101 -66 -227 -66q-98 0 -174.5 39t-120.5 101l-53 -113h-219zM358 432q0 -111 48 -170q54 -72 159 -72q84 0 158 74q60 60 91.5 163.5t31.5 203.5 q0 105 -52.5 175.5t-148.5 70.5q-88 0 -162 -74q-59 -61 -92 -166.5t-33 -204.5z" />
<glyph unicode="c" horiz-adv-x="1083" d="M43 453q0 141 49 275t144 224q65 61 156.5 100.5t193.5 39.5q208 0 323 -134q97 -115 97 -278q0 -2 -1 -7t-1 -7h-252v16q0 73 -31 117q-48 71 -143 71q-49 0 -81 -14t-65 -41q-66 -55 -99.5 -164t-33.5 -215q0 -103 50 -172t149 -69q73 0 131 43.5t73 111.5h252 q-32 -168 -166.5 -272.5t-308.5 -104.5q-118 0 -215.5 55t-154.5 152q-66 114 -66 273z" />
<glyph unicode="d" horiz-adv-x="1210" d="M43 426q0 181 72 346t211 254q101 66 225 66q100 0 179 -39t114 -101l94 527h254l-260 -1479h-209v121q-44 -74 -125 -111t-162 -37q-163 0 -272 115q-121 126 -121 338zM303 434q0 -106 49 -175t152 -69q84 0 160 76q60 61 93.5 165.5t33.5 201.5q0 109 -50.5 176.5 t-156.5 67.5q-82 0 -156 -74q-59 -59 -92 -165t-33 -204z" />
<glyph unicode="e" horiz-adv-x="1140" d="M43 444q0 70 12 138q40 223 193 368q65 62 160 102t202 40q130 0 232 -62.5t149 -163.5q31 -69 42 -120.5t11 -124.5q0 -65 -12 -132q-1 -8 -4 -19.5t-4 -16.5h-737q0 -41 2 -66t11.5 -58.5t27.5 -60.5q30 -43 77.5 -65.5t100.5 -22.5q72 0 128 31t81 92h246 q-38 -122 -127 -205q-132 -125 -340 -125q-191 0 -320 129q-62 62 -96.5 156t-34.5 186zM313 639h488q0 5 1 14.5t1 14.5q0 94 -55 155q-59 62 -158 62q-92 0 -168 -64q-77 -65 -109 -182z" />
<glyph unicode="f" horiz-adv-x="776" d="M45 854l37 211h182l23 133q11 63 36.5 115.5t68 96.5t110.5 68.5t155 24.5q117 0 242 -39l-37 -204q-100 28 -182 28q-58 0 -94 -28.5t-45 -81.5l-19 -113h283l-37 -211h-285l-149 -854h-258l151 854h-182z" />
<glyph unicode="g" horiz-adv-x="1083" d="M-68 -201q0 173 168 264q-75 55 -75 150q0 75 44 136.5t117 101.5q-80 93 -80 219q0 176 121 297q127 127 332 127q136 0 238 -60q89 125 233 125q54 0 70 -4l-35 -199q-3 0 -10.5 1t-10.5 1q-79 0 -122 -43q55 -85 55 -188q0 -155 -111 -272q-64 -69 -154.5 -106.5 t-189.5 -37.5q-117 0 -200 41q-22 -12 -35.5 -21.5t-27 -30.5t-13.5 -46q0 -19 9.5 -31.5t28.5 -19t32 -9t34 -4.5l309 -32q109 -11 187 -89.5t78 -181.5q0 -70 -28.5 -135t-76.5 -112q-80 -77 -192.5 -106.5t-255.5 -29.5q-218 0 -336 95q-103 83 -103 200zM150 -154 q0 -41 32 -77q33 -36 93 -51t118 -15q163 0 242 68q43 40 43 90q0 44 -34.5 70.5t-78.5 31.5l-295 31q-120 -33 -120 -148zM350 676q0 -74 51 -125q48 -45 125 -45q75 0 133 51q35 32 54.5 78t19.5 94q0 76 -49 125q-50 47 -127 47q-73 0 -135 -55q-72 -66 -72 -170z" />
<glyph unicode="h" horiz-adv-x="1210" d="M31 0l260 1479h258l-90 -510q63 61 143.5 92t157.5 31q149 0 237 -88q76 -73 76 -216q0 -50 -10 -108l-121 -680h-256l115 645q6 35 6 66q0 143 -143 143q-57 0 -113 -39t-92 -96q-60 -92 -90 -266l-80 -453h-258z" />
<glyph unicode="i" horiz-adv-x="569" d="M31 0l186 1065h262l-186 -1065h-262zM233 1214l48 265h276l-47 -265h-277z" />
<glyph unicode="j" horiz-adv-x="581" d="M-283 -385l37 207q73 -41 140 -41q103 0 124 113l205 1171h260l-215 -1241q-21 -124 -113.5 -196t-220.5 -72q-126 0 -217 59zM242 1214l47 265h276l-47 -265h-276z" />
<glyph unicode="k" horiz-adv-x="1171" d="M31 0l260 1479h258l-148 -838l461 424h346l-465 -424l312 -641h-287l-219 467l-211 -193l-49 -274h-258z" />
<glyph unicode="l" horiz-adv-x="604" d="M76 307l205 1172h258l-205 -1162q-3 -17 -3 -31q1 -29 13 -46q18 -25 70 -25q29 0 59 6l-37 -219q-57 -14 -131 -14q-119 0 -184 71q-53 59 -53 162q0 40 8 86z" />
<glyph unicode="m" horiz-adv-x="1814" d="M31 0l188 1065h209v-129q56 69 145 112.5t177 43.5q119 0 184 -48q39 -29 64 -69t30 -74q64 86 156.5 138.5t193.5 52.5q135 0 217 -76q41 -37 62.5 -90.5t21.5 -110.5q0 -63 -14 -145l-121 -670h-258l115 635q10 52 10 90q0 61 -36 95t-95 34q-88 0 -162 -88 q-88 -108 -123 -313l-82 -453h-251l112 635q10 48 10 90q0 58 -34 93.5t-99 35.5q-105 0 -190 -131q-30 -45 -55 -123.5t-37 -146.5l-82 -453h-256z" />
<glyph unicode="n" horiz-adv-x="1208" d="M31 0l188 1065h211v-129q65 75 154 115.5t176 40.5q149 0 237 -88q76 -73 76 -216q0 -50 -10 -108l-121 -680h-256l115 645q6 35 6 66q0 143 -143 143q-57 0 -111.5 -39t-91.5 -96q-62 -96 -92 -266l-80 -453h-258z" />
<glyph unicode="o" horiz-adv-x="1146" d="M43 434q0 152 48 289t149 233q64 61 155 98.5t193 37.5q190 0 311 -115q137 -128 137 -346q0 -152 -47.5 -289t-148.5 -233q-63 -60 -156.5 -98t-196.5 -38q-184 0 -305 115q-139 130 -139 346zM297 424q0 -87 39 -145q55 -82 164 -82q79 0 147 57q69 58 100 166.5 t31 220.5q0 87 -39 145q-55 82 -164 82q-79 0 -147 -57q-69 -58 -100 -166.5t-31 -220.5z" />
<glyph unicode="p" horiz-adv-x="1224" d="M-37 -408l260 1473v-6l2 6h207v-111q41 63 125 100.5t162 37.5q167 0 276 -115q119 -124 119 -338q0 -61 -14 -147q-56 -316 -269 -453q-101 -66 -227 -66q-100 0 -178.5 38t-116.5 100l-88 -519h-258zM365 432q0 -110 50 -177t156 -67q84 0 158 74q59 59 91 164.5 t32 204.5q0 81 -29 143q-49 100 -172 100q-89 0 -162 -73q-59 -61 -91.5 -165.5t-32.5 -203.5z" />
<glyph unicode="q" horiz-adv-x="1208" d="M43 426q0 181 71 346t210 254q101 66 227 66q101 0 180 -38.5t115 -101.5l53 113h219l-260 -1473h-258l82 474q-48 -43 -116.5 -68t-129.5 -25q-165 0 -274 115q-119 124 -119 338zM303 434q0 -105 52.5 -175.5t148.5 -70.5q88 0 162 74q83 87 112 252q13 85 13 119 q0 111 -48 170q-54 71 -159 71q-85 0 -158 -73q-60 -60 -91.5 -163.5t-31.5 -203.5z" />
<glyph unicode="r" horiz-adv-x="819" d="M31 0l186 1065h215v-137q47 72 126.5 106.5t170.5 34.5q50 0 115 -14l-43 -246q-62 20 -119 20q-119 0 -197 -77.5t-102 -210.5l-94 -541h-258z" />
<glyph unicode="s" horiz-adv-x="1048" d="M6 346v8h238q0 -61 43 -114q54 -68 192 -68q50 0 92 13t71.5 45t29.5 79q0 37 -22.5 63.5t-63.5 35.5l-221 53q-127 30 -187 92q-74 77 -74 184q0 85 41.5 156.5t112.5 120.5q116 78 283 78q113 0 208.5 -40.5t151.5 -121.5q64 -92 64 -185v-14h-240v2q0 59 -31 98 q-54 66 -170 66q-82 0 -131 -43q-43 -37 -43 -90q0 -72 105 -98l219 -54q87 -20 157 -86q82 -79 82 -194q0 -173 -137 -275q-116 -84 -317 -84q-118 0 -222 40t-163 124q-68 97 -68 209z" />
<glyph unicode="t" horiz-adv-x="815" d="M45 854l37 211h190l47 266l271 80l-60 -346h269l-39 -211h-266l-91 -508q-2 -10 -2 -31q0 -96 119 -96q72 0 164 37l-39 -223q-109 -47 -219 -47q-133 0 -205 69q-80 77 -80 207q0 38 11 109l84 483h-191z" />
<glyph unicode="u" horiz-adv-x="1179" d="M66 248q-3 28 -3 55q0 42 7 82l120 680h256l-112 -645q-6 -34 -6 -66q0 -74 34 -108q37 -37 109 -37q56 0 107 37.5t88 95.5q53 82 86 270l79 453h259l-187 -1065h-211v129q-119 -156 -309 -156q-150 0 -244 101q-64 70 -73 174z" />
<glyph unicode="v" horiz-adv-x="1032" d="M45 1065h256l133 -750l385 750h279l-574 -1065h-272z" />
<glyph unicode="w" horiz-adv-x="1570" d="M102 1065h238l47 -698l338 688h211l111 -686l286 696h254l-448 -1065h-234l-121 727l-362 -727h-238z" />
<glyph unicode="x" horiz-adv-x="1060" d="M-119 0l465 543l-278 522h284l172 -350l297 350h295l-463 -524l273 -541h-281l-174 360l-293 -360h-297z" />
<glyph unicode="y" horiz-adv-x="1081" d="M-143 -375l37 207q36 -24 83 -39.5t86 -15.5q84 0 130 80l83 145l-229 1063h268l142 -764l397 764h279l-715 -1294q-58 -104 -129 -156q-76 -59 -207 -59q-53 0 -117 20t-108 49z" />
<glyph unicode="z" horiz-adv-x="1030" d="M-41 0l41 225l657 629h-542l37 211h854l-41 -231l-650 -623h549l-37 -211h-868z" />
<glyph unicode="{" horiz-adv-x="772" d="M76 553l33 190q127 11 195.5 65.5t90.5 188.5l43 254q13 73 42 133.5t76.5 109.5t119 76t160.5 27h108l-31 -174h-69q-98 0 -147.5 -47.5t-65.5 -138.5l-56 -315q-16 -96 -88 -174.5t-180 -94.5l-2 -6q65 -14 113 -59q83 -80 59 -215l-55 -316q-16 -92 17 -139t130 -47 h70l-31 -174h-98q-68 0 -122.5 19.5t-88 53t-55.5 77.5t-24.5 94t5.5 102l47 254q24 131 -24 189t-172 67z" />
<glyph unicode="|" horiz-adv-x="544" d="M172 -303v1900h201v-1900h-201z" />
<glyph unicode="}" horiz-adv-x="772" d="M-201 -303l31 174h70q98 0 147.5 47.5t65.5 138.5l55 316q16 96 88 174t180 94l2 6q-62 14 -112 60q-85 82 -62 215l58 315q16 92 -17.5 139t-130.5 47h-70l31 174h98q68 0 122.5 -19.5t88 -53t55.5 -77.5t24.5 -94t-5.5 -102l-47 -254q-24 -131 24.5 -189t172.5 -67 l-33 -190q-128 -11 -196.5 -65.5t-90.5 -188.5l-43 -254q-13 -73 -42 -133.5t-76 -109.5t-118.5 -76t-160.5 -27h-109z" />
<glyph unicode="~" horiz-adv-x="1394" d="M102 621q56 50 93 80t89 63.5t105.5 49t110.5 15.5q66 0 137.5 -30.5t135 -61t110.5 -30.5q59 0 123.5 31.5t119.5 78.5l129 -190q-112 -100 -205 -152.5t-202 -52.5q-54 0 -111 20t-97 43.5t-87.5 43.5t-83.5 20q-108 0 -240 -119z" />
<glyph unicode="&#xa1;" horiz-adv-x="694" d="M23 -418l81 455l156 563h154l-41 -563l-82 -455h-268zM229 762l50 272h270l-49 -272h-271z" />
<glyph unicode="&#xa2;" d="M115 649q0 142 49 276t143 224q58 57 143 95t179 44l28 164h127l-30 -172q138 -23 227 -125q96 -114 96 -278q0 -2 -1 -7.5t-1 -7.5h-252v17q0 73 -30 116q-28 45 -78 62l-119 -664q64 8 114.5 50.5t63.5 103.5h252q-32 -167 -164.5 -271t-304.5 -106l-31 -170h-127 l33 184q-80 22 -145.5 72t-106.5 121q-65 112 -65 272zM371 633q0 -73 25 -131.5t77 -87.5l115 645q-39 -11 -84 -47q-66 -55 -99.5 -164t-33.5 -215z" />
<glyph unicode="&#xa3;" d="M-16 0l41 225q155 0 182 152l47 266h-154l37 211h154l33 186q34 192 153.5 303t319.5 111q156 0 257 -88t101 -227q0 -37 -6 -74h-248q2 23 2 35q0 63 -34.5 98t-102.5 35q-77 0 -122 -50t-60 -130l-35 -199h293l-37 -211h-293l-47 -268q-8 -48 -38 -90t-73 -52l-2 -4 h338q77 0 123.5 43.5t60.5 120.5h246q-34 -190 -151.5 -291.5t-309.5 -101.5h-675z" />
<glyph unicode="&#xa4;" d="M14 131l162 137q-74 130 -74 252t74 252l-162 129l181 178l137 -153q116 65 254 65q132 0 248 -65l141 153l178 -178l-160 -129q74 -130 74 -252q0 -125 -74 -252l160 -137l-176 -172l-143 156q-119 -68 -248 -68q-130 0 -252 68l-141 -156zM330 520q0 -108 69.5 -184 t186.5 -76q120 0 186 72t66 188q0 111 -68.5 184.5t-183.5 73.5q-125 0 -190.5 -70t-65.5 -188z" />
<glyph unicode="&#xa5;" d="M-8 332l26 149h326l33 185h-326l27 149h217l-236 608h279l207 -555l393 555h287l-445 -608h234l-27 -149h-348l-33 -185h348l-26 -149h-348l-60 -332h-262l59 332h-325z" />
<glyph unicode="&#xa6;" horiz-adv-x="587" d="M168 -102v653h252v-653h-252zM168 901v653h252v-653h-252z" />
<glyph unicode="&#xa7;" horiz-adv-x="1120" d="M55 -98h228q-4 -24 -4 -37q0 -73 45 -113.5t118 -40.5q64 0 109 40.5t45 103.5q0 59 -49 118l-334 406q-86 106 -86 239q0 204 225 306q-49 76 -49 174q0 66 26 126.5t70 104.5q57 56 137.5 85.5t168.5 29.5q161 0 267.5 -97t106.5 -260q0 -5 -1 -16t-1 -16h-229 q4 24 4 37q0 73 -44 111t-118 38q-66 0 -109.5 -39.5t-43.5 -103.5q0 -60 47 -117l334 -406q90 -111 90 -239q0 -202 -230 -307q49 -84 49 -170q0 -134 -102 -236q-112 -112 -303 -112q-161 0 -264 99t-103 265v27zM352 623q0 -64 35 -105l277 -336q116 53 116 146 q0 62 -37 108l-274 336q-56 -26 -86.5 -60.5t-30.5 -88.5z" />
<glyph unicode="&#xa8;" horiz-adv-x="657" d="M84 1231l45 248h240l-45 -248h-240zM506 1231l45 248h240l-46 -248h-239z" />
<glyph unicode="&#xa9;" horiz-adv-x="1716" d="M100 725q0 215 98.5 387.5t272 269.5t387.5 97t387.5 -97.5t272 -270t98.5 -386.5q0 -163 -57 -303.5t-157 -239t-241 -155t-303 -56.5q-163 0 -304 56.5t-240.5 155.5t-156.5 239t-57 303zM293 725q0 -253 157 -415.5t408 -162.5q164 0 294 75.5t201.5 207t71.5 295.5 q0 251 -158.5 414.5t-408.5 163.5t-407.5 -163.5t-157.5 -414.5zM483 721q0 172 104 288.5t281 116.5q145 0 242.5 -85t112.5 -218h-209q-8 48 -47.5 82.5t-98.5 34.5q-85 0 -129.5 -64t-44.5 -155q0 -99 45 -160t129 -61q59 0 98.5 34t47.5 82h209q-15 -133 -112.5 -218 t-242.5 -85q-118 0 -207 56.5t-133.5 148t-44.5 203.5z" />
<glyph unicode="&#xaa;" horiz-adv-x="968" d="M150 860q0 111 74.5 176t195.5 74l237 18v50q0 63 -28.5 95t-106.5 32q-67 0 -104.5 -29.5t-40.5 -85.5h-189q9 131 100.5 197.5t233.5 66.5q239 0 301 -166q23 -59 23 -164v-303q0 -27 11 -38t36 -11l25 4v-143q-3 -1 -7 -3q-47 -20 -90 -20q-60 0 -96 33t-41 82 q-29 -52 -96 -86.5t-150 -34.5q-137 0 -212.5 74.5t-75.5 181.5zM340 862q0 -45 33 -73.5t80 -28.5q94 0 149 49t55 137v37l-202 -16q-48 -3 -81.5 -30.5t-33.5 -74.5z" />
<glyph unicode="&#xab;" horiz-adv-x="1198" d="M70 651l438 473l129 -123l-305 -378l166 -416l-166 -84zM565 651l439 473l129 -123l-306 -378l166 -416l-166 -84z" />
<glyph unicode="&#xac;" horiz-adv-x="1366" d="M63 514v231h1084l2 -573h-250v342h-836z" />
<glyph unicode="&#xad;" horiz-adv-x="944" d="M84 516l41 229h702l-41 -229h-702z" />
<glyph unicode="&#xae;" horiz-adv-x="1716" d="M100 725q0 215 98.5 387.5t272 269.5t387.5 97t387.5 -97.5t272 -270t98.5 -386.5q0 -163 -57 -303.5t-157 -239t-241 -155t-303 -56.5q-163 0 -304 56.5t-240.5 155.5t-156.5 239t-57 303zM293 725q0 -253 157 -415.5t408 -162.5q164 0 293.5 75.5t200.5 207t71 295.5 q0 251 -157.5 414.5t-407.5 163.5t-407.5 -163.5t-157.5 -414.5zM584 365v747h297q124 0 203 -66t79 -188q0 -69 -28.5 -125.5t-87.5 -85.5l122 -282h-198l-101 245h-96v-245h-190zM772 780h109q41 0 65.5 22t24.5 62q0 38 -25.5 58t-64.5 20h-109v-162z" />
<glyph unicode="&#xaf;" horiz-adv-x="620" d="M-8 1251l33 205h614l-35 -205h-612z" />
<glyph unicode="&#xb0;" horiz-adv-x="909" d="M166 1137q0 146 95 244t255 98q157 0 257.5 -97.5t100.5 -244.5q0 -153 -104 -249.5t-254 -96.5q-147 0 -248.5 99t-101.5 247zM362 1137q0 -67 44.5 -113.5t109.5 -46.5t111.5 46.5t46.5 113.5q0 66 -46 110.5t-112 44.5q-65 0 -109.5 -44.5t-44.5 -110.5z" />
<glyph unicode="&#xb1;" horiz-adv-x="1241" d="M100 0v217h1041v-217h-1041zM100 659v215h404v328h231v-328h406v-215h-406v-327h-231v327h-404z" />
<glyph unicode="&#xb2;" horiz-adv-x="909" d="M154 700l26 146l361 268q84 61 84 117q0 27 -22.5 49.5t-59.5 22.5q-51 0 -84 -30t-43 -73h-191q34 129 124 196.5t229 67.5q100 0 168.5 -59.5t68.5 -155.5q0 -122 -139 -225l-197 -150h291l-31 -174h-585z" />
<glyph unicode="&#xb3;" horiz-adv-x="905" d="M156 922v18h178v-4q0 -47 31.5 -70.5t78.5 -23.5q57 0 100.5 26t43.5 80q0 22 -10 35.5t-29 19.5t-34 7.5t-36 1.5h-43l25 145h11q27 0 41.5 0.5t39 5t37 13.5t23 27t10.5 44q0 35 -28.5 51.5t-64.5 16.5q-116 0 -145 -103h-174q32 122 124.5 187t221.5 65q105 0 178 -53 q78 -60 78 -143q0 -63 -38 -112t-105 -66q43 -17 70.5 -58t27.5 -86q0 -89 -63 -155q-95 -103 -277 -103q-123 0 -197.5 71.5t-74.5 162.5z" />
<glyph unicode="&#xb4;" horiz-adv-x="518" d="M104 1335l422 213l80 -202l-442 -156z" />
<glyph unicode="&#xb5;" horiz-adv-x="1220" d="M119 -414v1479h254v-657q0 -203 186 -203q78 0 131 53q78 73 78 240v567h256v-1065h-213l-20 143q-38 -78 -120.5 -124t-183.5 -46q-69 0 -114 23v-410h-254z" />
<glyph unicode="&#xb6;" horiz-adv-x="1374" d="M145 991q0 95 41 181.5t108 147t155.5 96.5t181.5 36h745l-35 -199h-139l-266 -1509h-203l266 1509h-200l-267 -1509h-202l157 893q-149 8 -245.5 107t-96.5 247z" />
<glyph unicode="&#xb7;" horiz-adv-x="641" d="M94 440l58 320h311l-57 -320h-312z" />
<glyph unicode="&#xb8;" horiz-adv-x="401" d="M-135 -391l223 307h199l-228 -408z" />
<glyph unicode="&#xb9;" horiz-adv-x="815" d="M207 1096l37 204l239 150h168l-131 -743h-186l92 526z" />
<glyph unicode="&#xba;" horiz-adv-x="968" d="M145 1026q0 188 91 301q44 54 119 89.5t163 35.5t162.5 -35.5t118.5 -89.5q90 -112 90 -301q0 -185 -88 -295q-44 -55 -120 -92t-163 -37q-88 0 -164.5 37t-120.5 92q-88 110 -88 295zM344 1026q0 -71 9.5 -121t41.5 -84q47 -51 123 -51q74 0 121 51q53 58 53 205 q0 149 -53 207q-47 51 -121 51q-76 0 -123 -51q-32 -34 -41.5 -84.5t-9.5 -122.5z" />
<glyph unicode="&#xbb;" horiz-adv-x="1191" d="M12 242l307 372l-165 424l165 86l263 -534l-437 -467zM508 242l307 372l-166 424l166 86l262 -534l-436 -467z" />
<glyph unicode="&#xbc;" horiz-adv-x="1814" d="M166 74l1282 1405l133 -107l-1286 -1411zM217 1096l37 204l240 150h168l-132 -743h-186l92 526zM936 147l33 193l338 424h194l-356 -455h198l31 168h176l-28 -168h98l-29 -162h-98l-27 -145h-178l27 145h-379z" />
<glyph unicode="&#xbd;" horiz-adv-x="1859" d="M135 74l1282 1405l133 -107l-1286 -1411zM207 1098l37 205l239 149h168l-131 -743h-186l92 526zM950 0l27 145l360 269q84 61 84 116q0 27 -22.5 49.5t-59.5 22.5q-51 0 -84 -29.5t-43 -72.5h-190q34 129 123.5 196.5t228.5 67.5q100 0 169 -59.5t69 -155.5 q0 -122 -139 -225l-197 -150h291l-31 -174h-586z" />
<glyph unicode="&#xbe;" horiz-adv-x="1890" d="M162 922v18h178v-4q0 -46 33 -70t80 -24q57 0 99 26t42 80q0 22 -10 35.5t-29 19.5t-34 7.5t-36 1.5h-43l27 145h11q27 0 41.5 0.5t39 5t37 13.5t23 27t10.5 44q0 35 -28.5 51.5t-65.5 16.5q-117 0 -146 -103h-174q32 122 124.5 187t221.5 65q105 0 178 -53 q80 -61 80 -143q0 -63 -38 -112t-105 -66q43 -17 70.5 -58t27.5 -86q0 -87 -65 -155q-95 -103 -277 -103q-123 0 -197.5 71.5t-74.5 162.5zM270 74l1282 1405l134 -107l-1287 -1411zM1012 147l32 193l338 424h195l-356 -455h198l31 168h176l-29 -168h99l-29 -162h-98 l-27 -145h-178l27 145h-379z" />
<glyph unicode="&#xbf;" horiz-adv-x="1064" d="M-43 -84q0 36 6 74q17 99 74.5 170t148.5 133q9 6 38.5 25t37.5 24.5t31.5 22.5t31 25.5t25 25.5t25 30.5t18.5 33t17.5 41t11.5 46.5l10 49h254q-1 -8 -8 -50t-10.5 -59t-11 -47.5t-17.5 -53.5q-20 -50 -47 -89.5t-61 -69t-62 -49t-70.5 -46t-66.5 -43.5 q-91 -62 -105 -142q-2 -12 -2 -30q0 -74 57.5 -116t139.5 -42q98 0 160 59q27 27 44 67.5t19 76.5h266q-15 -97 -45 -167.5t-90 -129.5q-141 -138 -370 -138q-120 0 -221 42t-164.5 127.5t-63.5 199.5zM430 743l51 287h287l-51 -287h-287z" />
<glyph unicode="&#xc0;" horiz-adv-x="1294" d="M-143 0l766 1452h303l254 -1452h-277l-45 279h-577l-144 -279h-280zM401 516h418l-100 612zM571 1778l115 186l377 -283l-82 -133z" />
<glyph unicode="&#xc1;" horiz-adv-x="1294" d="M-143 0l766 1452h303l254 -1452h-277l-45 279h-577l-144 -279h-280zM401 516h418l-100 612zM537 1741l421 213l80 -203l-442 -156z" />
<glyph unicode="&#xc2;" horiz-adv-x="1294" d="M-143 0l766 1452h303l254 -1452h-277l-45 279h-577l-144 -279h-280zM401 516h418l-100 612zM469 1712l287 211h151l215 -209l-123 -125l-182 178l-254 -186z" />
<glyph unicode="&#xc3;" horiz-adv-x="1294" d="M-143 0l766 1452h303l254 -1452h-277l-45 279h-577l-144 -279h-280zM401 516h418l-100 612zM451 1722q111 107 223 107q54 0 129 -35t108 -35q69 0 133 53l78 -124q-105 -105 -225 -105q-54 0 -129.5 34t-105.5 34q-72 0 -138 -54z" />
<glyph unicode="&#xc4;" horiz-adv-x="1294" d="M-143 0l766 1452h303l254 -1452h-277l-45 279h-577l-144 -279h-280zM401 516h418l-100 612zM467 1620l45 248h240l-45 -248h-240zM889 1620l45 248h240l-46 -248h-239z" />
<glyph unicode="&#xc5;" horiz-adv-x="1294" d="M-143 0l737 1397q-62 72 -62 166q0 104 72.5 175.5t177.5 71.5t177.5 -71.5t72.5 -175.5q0 -119 -90 -193l238 -1370h-277l-45 279h-577l-144 -279h-280zM403 516h414l-98 612zM676 1563q0 -45 31 -77t75 -32t76.5 32.5t32.5 76.5t-32 75t-77 31q-44 0 -75 -31t-31 -75z " />
<glyph unicode="&#xc6;" horiz-adv-x="1947" d="M-152 0l920 1452h1217l-43 -240h-678l-62 -338h572l-43 -237h-572l-69 -397h696l-43 -240h-961l66 369h-471l-227 -369h-302zM526 612h365l104 594h-102z" />
<glyph unicode="&#xc7;" horiz-adv-x="1286" d="M72 549q0 200 66.5 412.5t189.5 336.5q181 181 428 181q222 0 370 -142q72 -69 110 -163.5t38 -198.5h-270q0 115 -72 190q-66 72 -182 72q-128 0 -226 -98q-60 -59 -104 -170.5t-63 -221t-19 -202.5q0 -164 84 -252q77 -80 201 -80t208 78q67 64 95 151h270 q-17 -82 -63.5 -163t-112.5 -146q-166 -160 -406 -160q-112 0 -213.5 38t-175.5 114q-153 153 -153 424zM276 -391l224 307h198l-247 -408z" />
<glyph unicode="&#xc8;" horiz-adv-x="1286" d="M41 0l258 1452h1024l-43 -240h-758l-61 -338h669l-43 -237h-669l-70 -397h770l-43 -240h-1034zM588 1778l114 186l377 -283l-82 -133z" />
<glyph unicode="&#xc9;" horiz-adv-x="1286" d="M41 0l258 1452h1024l-43 -240h-758l-61 -338h669l-43 -237h-669l-70 -397h770l-43 -240h-1034zM592 1741l422 213l80 -203l-443 -156z" />
<glyph unicode="&#xca;" horiz-adv-x="1286" d="M41 0l258 1452h1024l-43 -240h-758l-61 -338h669l-43 -237h-669l-70 -397h770l-43 -240h-1034zM496 1712l286 211h152l215 -209l-123 -125l-182 178l-254 -186z" />
<glyph unicode="&#xcb;" horiz-adv-x="1286" d="M41 0l258 1452h1024l-43 -240h-758l-61 -338h669l-43 -237h-669l-70 -397h770l-43 -240h-1034zM508 1620l45 248h240l-45 -248h-240zM930 1620l45 248h239l-45 -248h-239z" />
<glyph unicode="&#xcc;" horiz-adv-x="608" d="M41 0l256 1452h270l-256 -1452h-270zM231 1796l103 168l340 -256l-74 -119z" />
<glyph unicode="&#xcd;" horiz-adv-x="608" d="M41 0l256 1452h270l-256 -1452h-270zM209 1737l422 213l80 -203l-443 -156z" />
<glyph unicode="&#xce;" horiz-adv-x="608" d="M41 0l256 1452h270l-256 -1452h-270zM131 1712l287 211h151l215 -209l-122 -125l-183 178l-254 -186z" />
<glyph unicode="&#xcf;" horiz-adv-x="608" d="M41 0l256 1452h270l-256 -1452h-270zM129 1620l45 248h240l-45 -248h-240zM551 1620l45 248h240l-45 -248h-240z" />
<glyph unicode="&#xd0;" horiz-adv-x="1392" d="M31 668l30 172h127l109 612h487q130 0 246.5 -49t188.5 -146q102 -137 102 -333q0 -94 -15 -199t-47 -218.5t-92.5 -216t-140.5 -165.5q-162 -125 -420 -125h-565l117 668h-127zM348 238h287q157 0 248 94q80 84 129 260.5t49 312.5q0 124 -53 199q-37 52 -104.5 81 t-153.5 29h-230l-65 -374h268l-31 -172h-268z" />
<glyph unicode="&#xd1;" horiz-adv-x="1501" d="M41 0l258 1452h281l446 -1030l172 1030h262l-258 -1452h-272l-455 1042l-172 -1042h-262zM524 1769q123 123 236 123q47 0 93 -21.5t85 -43t70 -21.5q59 0 129 70l104 -131q-119 -123 -235 -123q-47 0 -94.5 21t-86.5 42t-67 21q-69 0 -129 -68z" />
<glyph unicode="&#xd2;" horiz-adv-x="1374" d="M72 549q0 200 66.5 411.5t189.5 335.5q181 181 428 181q113 0 215 -38t176 -114q156 -156 156 -424q0 -200 -65.5 -411.5t-188.5 -335.5q-181 -181 -435 -181q-112 0 -213.5 38t-175.5 114q-153 153 -153 424zM338 545q0 -164 84 -252q80 -80 196 -80q134 0 230 96 q87 86 135.5 265t48.5 331q0 164 -84 252q-80 80 -196 80q-130 0 -228 -98q-60 -59 -104 -170.5t-63 -221t-19 -202.5zM588 1778l114 186l377 -283l-82 -133z" />
<glyph unicode="&#xd3;" horiz-adv-x="1374" d="M72 549q0 200 66.5 411.5t189.5 335.5q181 181 428 181q113 0 215 -38t176 -114q156 -156 156 -424q0 -200 -65.5 -411.5t-188.5 -335.5q-181 -181 -435 -181q-112 0 -213.5 38t-175.5 114q-153 153 -153 424zM338 545q0 -164 84 -252q80 -80 196 -80q134 0 230 96 q87 86 135.5 265t48.5 331q0 164 -84 252q-80 80 -196 80q-130 0 -228 -98q-60 -59 -104 -170.5t-63 -221t-19 -202.5zM594 1741l422 213l80 -203l-443 -156z" />
<glyph unicode="&#xd4;" horiz-adv-x="1374" d="M72 549q0 200 66.5 411.5t189.5 335.5q181 181 428 181q113 0 215 -38t176 -114q156 -156 156 -424q0 -200 -65.5 -411.5t-188.5 -335.5q-181 -181 -435 -181q-112 0 -213.5 38t-175.5 114q-153 153 -153 424zM338 545q0 -164 84 -252q80 -80 196 -80q134 0 230 96 q87 86 135.5 265t48.5 331q0 164 -84 252q-80 80 -196 80q-130 0 -228 -98q-60 -59 -104 -170.5t-63 -221t-19 -202.5zM492 1712l286 211h152l215 -209l-123 -125l-182 178l-254 -186z" />
<glyph unicode="&#xd5;" horiz-adv-x="1374" d="M72 549q0 200 66.5 411.5t189.5 335.5q181 181 428 181q113 0 215 -38t176 -114q156 -156 156 -424q0 -200 -65.5 -411.5t-188.5 -335.5q-181 -181 -435 -181q-112 0 -213.5 38t-175.5 114q-153 153 -153 424zM338 545q0 -164 84 -252q80 -80 196 -80q134 0 230 96 q87 86 135.5 265t48.5 331q0 164 -84 252q-80 80 -196 80q-130 0 -228 -98q-60 -59 -104 -170.5t-63 -221t-19 -202.5zM504 1737q109 106 225 106q54 0 129 -34.5t107 -34.5q71 0 135 53l78 -125q-105 -105 -226 -105q-54 0 -130.5 35t-106.5 35q-68 0 -135 -55z" />
<glyph unicode="&#xd6;" horiz-adv-x="1374" d="M72 549q0 200 66.5 411.5t189.5 335.5q181 181 428 181q113 0 215 -38t176 -114q156 -156 156 -424q0 -200 -65.5 -411.5t-188.5 -335.5q-181 -181 -435 -181q-112 0 -213.5 38t-175.5 114q-153 153 -153 424zM338 545q0 -164 84 -252q80 -80 196 -80q134 0 230 96 q87 86 135.5 265t48.5 331q0 164 -84 252q-80 80 -196 80q-130 0 -228 -98q-60 -59 -104 -170.5t-63 -221t-19 -202.5zM492 1620l45 248h239l-45 -248h-239zM913 1620l45 248h240l-45 -248h-240z" />
<glyph unicode="&#xd7;" horiz-adv-x="1406" d="M129 182l426 426l-426 426l147 148l426 -424l426 424l150 -148l-426 -426l426 -426l-150 -147l-426 426l-426 -426z" />
<glyph unicode="&#xd8;" horiz-adv-x="1370" d="M70 549q0 200 66.5 411.5t189.5 335.5q181 181 428 181q160 0 290 -74l93 137l125 -74l-105 -153q143 -155 143 -412q0 -201 -65.5 -412t-187.5 -335q-181 -181 -435 -181q-170 0 -301 82l-112 -166l-125 74l127 187q-131 154 -131 399zM336 545q0 -91 24 -156l543 805 q-67 43 -153 43q-130 0 -228 -98q-60 -59 -104 -170.5t-63 -221t-19 -202.5zM453 264q68 -51 163 -51q134 0 230 96q87 86 135.5 265t48.5 331q0 103 -31 172z" />
<glyph unicode="&#xd9;" horiz-adv-x="1421" d="M100 467q0 61 13 141l147 844h268l-151 -864q-10 -58 -10 -101q0 -134 75 -204t209 -70t215.5 85.5t108.5 236.5l164 917h266l-166 -944q-44 -247 -198 -391t-396 -144q-119 0 -217.5 30.5t-172 90.5t-114.5 155.5t-41 217.5zM578 1778l114 186l377 -283l-82 -133z" />
<glyph unicode="&#xda;" horiz-adv-x="1421" d="M100 467q0 61 13 141l147 844h268l-151 -864q-10 -58 -10 -101q0 -134 75 -204t209 -70t215.5 85.5t108.5 236.5l164 917h266l-166 -944q-44 -247 -198 -391t-396 -144q-119 0 -217.5 30.5t-172 90.5t-114.5 155.5t-41 217.5zM610 1741l422 213l80 -203l-442 -156z" />
<glyph unicode="&#xdb;" horiz-adv-x="1421" d="M100 467q0 61 13 141l147 844h268l-151 -864q-10 -58 -10 -101q0 -134 75 -204t209 -70t215.5 85.5t108.5 236.5l164 917h266l-166 -944q-44 -247 -198 -391t-396 -144q-119 0 -217.5 30.5t-172 90.5t-114.5 155.5t-41 217.5zM539 1712l286 211h152l215 -209l-123 -125 l-182 178l-254 -186z" />
<glyph unicode="&#xdc;" horiz-adv-x="1421" d="M100 467q0 61 13 141l147 844h268l-151 -864q-10 -58 -10 -101q0 -134 75 -204t209 -70t215.5 85.5t108.5 236.5l164 917h266l-166 -944q-44 -247 -198 -391t-396 -144q-119 0 -217.5 30.5t-172 90.5t-114.5 155.5t-41 217.5zM518 1620l45 248h240l-45 -248h-240z M940 1620l45 248h240l-45 -248h-240z" />
<glyph unicode="&#xdd;" horiz-adv-x="1208" d="M80 1452h270l242 -641l471 641h295l-668 -895l-98 -557h-266l98 557zM467 1741l422 213l80 -203l-443 -156z" />
<glyph unicode="&#xde;" horiz-adv-x="1212" d="M39 0l258 1452h262l-45 -246h231q129 0 233.5 -50.5t166 -144.5t61.5 -214q0 -168 -75 -287.5t-204 -177.5t-298 -58h-279l-49 -274h-262zM391 506h248q138 0 216.5 65.5t78.5 198.5q0 92 -59 148.5t-170 56.5h-232z" />
<glyph unicode="&#xdf;" horiz-adv-x="1243" d="M49 854l35 211h172l8 43q36 186 166.5 289.5t310.5 103.5q192 0 318 -123q98 -95 98 -241q0 -118 -69 -214t-183 -120q107 -34 175.5 -130.5t68.5 -213.5q0 -101 -39 -195t-106 -155q-145 -132 -342 -132q-118 0 -230 39l39 222q87 -25 158 -25q113 0 182 63 q86 77 86 213q0 96 -71.5 158t-172.5 62h-43l39 211h41q101 0 156 55q51 48 51 135q0 71 -43 117q-50 53 -129 53q-89 0 -144 -62t-73 -165l-186 -1053h-252l149 854h-170z" />
<glyph unicode="&#xe0;" horiz-adv-x="1208" d="M43 426q0 143 49.5 287t140.5 237q142 142 318 142q101 0 181.5 -41t113.5 -105l47 119h225l-188 -1065h-207v121q-52 -77 -129 -112.5t-158 -35.5q-165 0 -272 113q-121 126 -121 340zM303 428q0 -105 50 -171.5t151 -66.5q82 0 160 78q63 65 95 167t32 206 q0 103 -50 164q-54 72 -157 72q-80 0 -156 -76q-60 -60 -92.5 -166.5t-32.5 -206.5zM416 1389l114 186l377 -283l-82 -133z" />
<glyph unicode="&#xe1;" horiz-adv-x="1208" d="M43 426q0 143 49.5 287t140.5 237q142 142 318 142q101 0 181.5 -41t113.5 -105l47 119h225l-188 -1065h-207v121q-52 -77 -129 -112.5t-158 -35.5q-165 0 -272 113q-121 126 -121 340zM303 428q0 -105 50 -171.5t151 -66.5q82 0 160 78q63 65 95 167t32 206 q0 103 -50 164q-54 72 -157 72q-80 0 -156 -76q-60 -60 -92.5 -166.5t-32.5 -206.5zM401 1335l422 213l80 -202l-442 -156z" />
<glyph unicode="&#xe2;" horiz-adv-x="1208" d="M43 426q0 143 49.5 287t140.5 237q142 142 318 142q101 0 181.5 -41t113.5 -105l47 119h225l-188 -1065h-207v121q-49 -71 -128 -109.5t-159 -38.5q-165 0 -272 113q-121 126 -121 340zM303 428q0 -105 50 -171.5t151 -66.5q82 0 160 78q63 65 95 167t32 206 q0 100 -49 168t-148 68q-90 0 -166 -76q-60 -60 -92.5 -166.5t-32.5 -206.5zM373 1298l286 238h146l213 -252l-135 -110l-166 194l-240 -197z" />
<glyph unicode="&#xe3;" horiz-adv-x="1208" d="M43 426q0 143 49.5 287t140.5 237q142 142 318 142q101 0 181.5 -41t113.5 -105l47 119h225l-188 -1065h-207v121q-52 -77 -129 -112.5t-158 -35.5q-165 0 -272 113q-121 126 -121 340zM303 428q0 -105 50 -171.5t151 -66.5q82 0 160 78q63 65 95 167t32 206 q0 103 -50 164q-54 72 -157 72q-80 0 -156 -76q-60 -60 -92.5 -166.5t-32.5 -206.5zM350 1403q109 106 225 106q53 0 128 -34.5t108 -34.5q71 0 135 53l78 -125q-104 -104 -225 -104q-54 0 -131 34.5t-107 34.5q-68 0 -135 -55z" />
<glyph unicode="&#xe4;" horiz-adv-x="1208" d="M43 426q0 143 49.5 287t140.5 237q142 142 318 142q101 0 181.5 -41t113.5 -105l47 119h225l-188 -1065h-207v121q-52 -77 -129 -112.5t-158 -35.5q-165 0 -272 113q-121 126 -121 340zM303 428q0 -105 50 -171.5t151 -66.5q82 0 160 78q63 65 95 167t32 206 q0 103 -50 164q-54 72 -157 72q-80 0 -156 -76q-60 -60 -92.5 -166.5t-32.5 -206.5zM358 1231l45 248h240l-45 -248h-240zM780 1231l45 248h240l-45 -248h-240z" />
<glyph unicode="&#xe5;" horiz-adv-x="1208" d="M43 426q0 143 49.5 287t140.5 237q142 142 318 142q101 0 181.5 -41t113.5 -105l47 119h225l-188 -1065h-207v121q-52 -77 -129 -112.5t-158 -35.5q-165 0 -272 113q-121 126 -121 340zM303 428q0 -105 50 -171.5t151 -66.5q82 0 160 78q63 65 95 167t32 206 q0 103 -50 164q-54 72 -157 72q-80 0 -156 -76q-60 -60 -92.5 -166.5t-32.5 -206.5zM418 1454q0 104 73 176t177 72t177 -72t73 -176t-73 -177t-177 -73t-177 73t-73 177zM561 1454q0 -44 31.5 -76t75.5 -32t76 32t32 76t-32 75.5t-76 31.5t-75.5 -31.5t-31.5 -75.5z" />
<glyph unicode="&#xe6;" horiz-adv-x="1798" d="M-8 272q0 84 37 151.5t99 110t135 67.5t153 32q49 4 182 4h104l17 92q4 24 4 35q0 58 -36.5 92.5t-104.5 34.5q-176 0 -213 -146h-248q28 116 101.5 195.5t173.5 115.5t222 36q100 0 180.5 -42.5t104.5 -103.5q137 146 359 146q131 0 235.5 -63t151.5 -163 q31 -69 42 -120.5t11 -124.5q0 -65 -12 -132q-1 -7 -4.5 -19t-4.5 -17h-739v-21q0 -103 41 -164q30 -43 78.5 -66.5t101.5 -23.5q87 0 156 58q38 33 65 88h254q-47 -128 -143 -218q-63 -60 -152 -96.5t-192 -36.5q-120 0 -226 61t-151 169q-35 -67 -105.5 -123t-152.5 -82 q-77 -25 -176 -25q-92 0 -170 34.5t-128 104t-50 160.5zM248 289q0 -50 37 -77.5t92 -27.5q120 0 195.5 74.5t97.5 190.5h-97q-87 0 -151 -5q-75 -5 -124.5 -44.5t-49.5 -110.5zM971 639h489q0 4 1 13.5t1 13.5q0 96 -57 159q-59 62 -158 62q-92 0 -168 -64 q-79 -67 -108 -184z" />
<glyph unicode="&#xe7;" horiz-adv-x="1083" d="M43 453q0 141 49 275t144 224q65 61 156.5 100.5t193.5 39.5q208 0 323 -134q97 -115 97 -278q0 -2 -1 -7t-1 -7h-252v16q0 73 -31 117q-48 71 -143 71q-49 0 -81 -14t-65 -41q-66 -55 -99.5 -164t-33.5 -215q0 -103 50 -172t149 -69q73 0 131 43.5t73 111.5h252 q-32 -168 -166.5 -272.5t-308.5 -104.5q-118 0 -215.5 55t-154.5 152q-66 114 -66 273zM135 -391l223 307h199l-227 -408z" />
<glyph unicode="&#xe8;" horiz-adv-x="1140" d="M43 444q0 70 12 138q40 223 193 368q65 62 160 102t202 40q130 0 232 -62.5t149 -163.5q31 -69 42 -120.5t11 -124.5q0 -65 -12 -132q-1 -8 -4 -19.5t-4 -16.5h-737q0 -41 2 -66t11.5 -58.5t27.5 -60.5q30 -43 77.5 -65.5t100.5 -22.5q72 0 128 31t81 92h246 q-38 -122 -127 -205q-132 -125 -340 -125q-191 0 -320 129q-62 62 -96.5 156t-34.5 186zM313 639h488q0 5 1 14.5t1 14.5q0 94 -55 155q-59 62 -158 62q-92 0 -168 -64q-77 -65 -109 -182zM444 1382l115 187l377 -283l-82 -133z" />
<glyph unicode="&#xe9;" horiz-adv-x="1140" d="M43 444q0 70 12 138q40 223 193 368q65 62 160 102t202 40q130 0 232 -62.5t149 -163.5q31 -69 42 -120.5t11 -124.5q0 -65 -12 -132q-1 -8 -4 -19.5t-4 -16.5h-737q0 -41 2 -66t11.5 -58.5t27.5 -60.5q30 -43 77.5 -65.5t100.5 -22.5q72 0 128 31t81 92h246 q-38 -122 -127 -205q-132 -125 -340 -125q-191 0 -320 129q-62 62 -96.5 156t-34.5 186zM313 639h488q0 5 1 14.5t1 14.5q0 94 -55 155q-59 62 -158 62q-92 0 -168 -64q-77 -65 -109 -182zM436 1335l422 213l80 -202l-442 -156z" />
<glyph unicode="&#xea;" horiz-adv-x="1140" d="M43 444q0 70 12 138q40 223 193 368q65 62 160 102t202 40q130 0 232 -62.5t149 -163.5q31 -69 42 -120.5t11 -124.5q0 -65 -12 -132q-1 -8 -4 -19.5t-4 -16.5h-737q0 -41 2 -66t11.5 -58.5t27.5 -60.5q30 -43 77.5 -65.5t100.5 -22.5q72 0 128 31t81 92h246 q-38 -122 -127 -205q-132 -125 -340 -125q-191 0 -320 129q-62 62 -96.5 156t-34.5 186zM313 639h488q0 5 1 14.5t1 14.5q0 94 -55 155q-59 62 -158 62q-92 0 -168 -64q-77 -65 -109 -182zM330 1298l286 238h146l213 -252l-135 -110l-166 194l-240 -197z" />
<glyph unicode="&#xeb;" horiz-adv-x="1140" d="M43 444q0 70 12 138q40 223 193 368q65 62 160 102t202 40q130 0 232 -62.5t149 -163.5q31 -69 42 -120.5t11 -124.5q0 -65 -12 -132q-1 -8 -4 -19.5t-4 -16.5h-737q0 -41 2 -66t11.5 -58.5t27.5 -60.5q30 -43 77.5 -65.5t100.5 -22.5q72 0 128 31t81 92h246 q-38 -122 -127 -205q-132 -125 -340 -125q-191 0 -320 129q-62 62 -96.5 156t-34.5 186zM313 639h488q0 5 1 14.5t1 14.5q0 94 -55 155q-59 62 -158 62q-92 0 -168 -64q-77 -65 -109 -182zM338 1231l45 248h240l-45 -248h-240zM760 1231l45 248h239l-45 -248h-239z" />
<glyph unicode="&#xec;" horiz-adv-x="569" d="M31 0l186 1065h262l-186 -1065h-262zM156 1384l102 168l340 -254l-74 -120z" />
<glyph unicode="&#xed;" horiz-adv-x="569" d="M31 0l186 1065h262l-186 -1065h-262zM154 1339l381 191l71 -182l-399 -140z" />
<glyph unicode="&#xee;" horiz-adv-x="569" d="M31 0l186 1065h262l-186 -1065h-262zM55 1298l287 238h145l213 -252l-135 -110l-166 194l-239 -197z" />
<glyph unicode="&#xef;" horiz-adv-x="569" d="M31 0l186 1065h262l-186 -1065h-262zM82 1243l41 223h215l-39 -223h-217zM463 1243l39 223h217l-41 -223h-215z" />
<glyph unicode="&#xf0;" horiz-adv-x="1146" d="M43 434q0 152 48 289t149 233q64 61 155 98.5t193 37.5q33 0 49 -2l-45 104h-232l25 137h152l-58 148h246l59 -148h201l-24 -137h-119l139 -326q55 -126 55 -237q0 -152 -47.5 -289t-148.5 -233q-63 -60 -156.5 -98t-196.5 -38q-184 0 -305 115q-139 130 -139 346z M297 424q0 -87 39 -145q55 -82 164 -82q79 0 147 57q69 58 100 166.5t31 220.5q0 87 -39 145q-55 82 -164 82q-79 0 -147 -57q-69 -58 -100 -166.5t-31 -220.5z" />
<glyph unicode="&#xf1;" horiz-adv-x="1208" d="M31 0l188 1065h211v-129q65 75 154 115.5t176 40.5q149 0 237 -88q76 -73 76 -216q0 -50 -10 -108l-121 -680h-256l115 645q6 35 6 66q0 143 -143 143q-57 0 -111.5 -39t-91.5 -96q-62 -96 -92 -266l-80 -453h-258zM348 1401q121 121 232 121q46 0 91 -21t83 -42t69 -21 q30 0 65.5 20.5t59.5 46.5l103 -129q-121 -121 -230 -121q-47 0 -93 20.5t-84.5 41t-65.5 20.5q-66 0 -127 -65z" />
<glyph unicode="&#xf2;" horiz-adv-x="1146" d="M43 434q0 152 48 289t149 233q64 61 155 98.5t193 37.5q190 0 311 -115q137 -128 137 -346q0 -152 -47.5 -289t-148.5 -233q-63 -60 -156.5 -98t-196.5 -38q-184 0 -305 115q-139 130 -139 346zM297 424q0 -87 39 -145q55 -82 164 -82q79 0 147 57q69 58 100 166.5 t31 220.5q0 87 -39 145q-55 82 -164 82q-79 0 -147 -57q-69 -58 -100 -166.5t-31 -220.5zM426 1389l115 186l377 -283l-82 -133z" />
<glyph unicode="&#xf3;" horiz-adv-x="1146" d="M43 434q0 152 48 289t149 233q64 61 155 98.5t193 37.5q190 0 311 -115q137 -128 137 -346q0 -152 -47.5 -289t-148.5 -233q-63 -60 -156.5 -98t-196.5 -38q-184 0 -305 115q-139 130 -139 346zM297 424q0 -87 39 -145q55 -82 164 -82q79 0 147 57q69 58 100 166.5 t31 220.5q0 87 -39 145q-55 82 -164 82q-79 0 -147 -57q-69 -58 -100 -166.5t-31 -220.5zM455 1335l419 213l80 -202l-442 -156z" />
<glyph unicode="&#xf4;" horiz-adv-x="1146" d="M43 434q0 152 48 289t149 233q64 61 155 98.5t193 37.5q190 0 311 -115q137 -128 137 -346q0 -152 -47.5 -289t-148.5 -233q-63 -60 -156.5 -98t-196.5 -38q-184 0 -305 115q-139 130 -139 346zM297 424q0 -87 39 -145q55 -82 164 -82q79 0 147 57q69 58 100 166.5 t31 220.5q0 87 -39 145q-55 82 -164 82q-79 0 -147 -57q-69 -58 -100 -166.5t-31 -220.5zM326 1298l286 238h146l213 -252l-135 -110l-166 194l-240 -197z" />
<glyph unicode="&#xf5;" horiz-adv-x="1146" d="M43 434q0 152 48 289t149 233q64 61 155 98.5t193 37.5q190 0 311 -115q137 -128 137 -346q0 -152 -47.5 -289t-148.5 -233q-63 -60 -156.5 -98t-196.5 -38q-184 0 -305 115q-139 130 -139 346zM297 424q0 -87 39 -145q55 -82 164 -82q79 0 147 57q69 58 100 166.5 t31 220.5q0 87 -39 145q-55 82 -164 82q-79 0 -147 -57q-69 -58 -100 -166.5t-31 -220.5zM313 1391q112 108 224 108q53 0 129 -36t108 -36q66 0 133 56l78 -125q-105 -105 -225 -105q-54 0 -130 34t-106 34q-73 0 -137 -53z" />
<glyph unicode="&#xf6;" horiz-adv-x="1146" d="M43 434q0 152 48 289t149 233q64 61 155 98.5t193 37.5q190 0 311 -115q137 -128 137 -346q0 -152 -47.5 -289t-148.5 -233q-63 -60 -156.5 -98t-196.5 -38q-184 0 -305 115q-139 130 -139 346zM297 424q0 -87 39 -145q55 -82 164 -82q79 0 147 57q69 58 100 166.5 t31 220.5q0 87 -39 145q-55 82 -164 82q-79 0 -147 -57q-69 -58 -100 -166.5t-31 -220.5zM319 1231l46 248h239l-45 -248h-240zM741 1231l45 248h240l-45 -248h-240z" />
<glyph unicode="&#xf7;" horiz-adv-x="1323" d="M121 498v233h1081v-233h-1081zM524 61v285h281v-285h-281zM524 893v285h281v-285h-281z" />
<glyph unicode="&#xf8;" horiz-adv-x="1146" d="M43 434q0 152 48 289t149 233q64 61 155 98.5t193 37.5q114 0 213 -48l84 127l119 -67l-93 -139q125 -125 125 -334q0 -152 -47.5 -289t-148.5 -233q-63 -60 -156.5 -98t-196.5 -38q-113 0 -204 45l-93 -139l-118 68l100 151q-129 132 -129 336zM295 424q0 -68 18 -113 l359 539q-46 22 -97 22q-79 0 -149 -59t-100.5 -166.5t-30.5 -222.5zM412 211q40 -18 88 -18q79 0 149 59t100.5 166.5t30.5 222.5q0 58 -16 102z" />
<glyph unicode="&#xf9;" horiz-adv-x="1179" d="M66 248q-7 72 4 137l120 680h256l-112 -645q-6 -34 -6 -66q0 -74 34 -108q37 -37 109 -37q56 0 107 37.5t88 95.5q53 82 86 270l79 453h259l-187 -1065h-211v129q-119 -156 -309 -156q-150 0 -244 101q-64 70 -73 174zM406 1389l114 186l377 -283l-82 -133z" />
<glyph unicode="&#xfa;" horiz-adv-x="1179" d="M66 248q-7 72 4 137l120 680h256l-112 -645q-6 -34 -6 -66q0 -74 34 -108q37 -37 109 -37q56 0 107 37.5t88 95.5q53 82 86 270l79 453h259l-187 -1065h-211v129q-119 -156 -309 -156q-150 0 -244 101q-64 70 -73 174zM422 1335l422 213l80 -202l-443 -156z" />
<glyph unicode="&#xfb;" horiz-adv-x="1179" d="M66 248q-7 72 4 137l120 680h256l-112 -645q-6 -34 -6 -66q0 -74 34 -108q37 -37 109 -37q56 0 107 37.5t88 95.5q53 82 86 270l79 453h259l-187 -1065h-211v129q-119 -156 -309 -156q-150 0 -244 101q-64 70 -73 174zM352 1298l287 238h145l213 -252l-135 -110l-166 194 l-239 -197z" />
<glyph unicode="&#xfc;" horiz-adv-x="1179" d="M66 248q-7 72 4 137l120 680h256l-112 -645q-6 -34 -6 -66q0 -74 34 -108q37 -37 109 -37q56 0 107 37.5t88 95.5q53 82 86 270l79 453h259l-187 -1065h-211v129q-119 -156 -309 -156q-150 0 -244 101q-64 70 -73 174zM328 1231l45 248h239l-45 -248h-239zM750 1231 l45 248h239l-45 -248h-239z" />
<glyph unicode="&#xfd;" horiz-adv-x="1081" d="M-143 -375l37 207q36 -24 83 -39.5t86 -15.5q84 0 130 80l83 145l-229 1063h268l142 -764l397 764h279l-715 -1294q-58 -104 -129 -156q-76 -59 -207 -59q-53 0 -117 20t-108 49zM362 1329l422 213l80 -203l-442 -155z" />
<glyph unicode="&#xfe;" horiz-adv-x="1218" d="M-47 -408l334 1887h258l-78 -478q51 47 117 70t129 23q167 0 276 -115q119 -124 119 -338q0 -181 -72 -346t-211 -254q-101 -66 -227 -66q-98 0 -174.5 39t-120.5 101l-94 -523h-256zM358 434q0 -111 48 -170q54 -71 159 -71q85 0 158 73q60 60 91.5 163.5t31.5 203.5 q0 105 -52.5 175.5t-148.5 70.5q-88 0 -162 -74q-59 -61 -92 -166.5t-33 -204.5z" />
<glyph unicode="&#xff;" horiz-adv-x="1081" d="M-143 -375l37 207q36 -24 83 -39.5t86 -15.5q84 0 130 80l83 145l-229 1063h268l142 -764l397 764h279l-715 -1294q-58 -104 -129 -156q-76 -59 -207 -59q-53 0 -117 20t-108 49zM291 1231l45 248h239l-45 -248h-239zM713 1231l45 248h239l-45 -248h-239z" />
<glyph unicode="&#x152;" horiz-adv-x="2095" d="M72 539q0 147 29 291.5t100.5 287.5t177.5 225q176 136 381 136q122 0 225.5 -49t140.5 -125l27 147h971l-43 -240h-713l-61 -338h616l-43 -237h-616l-70 -397h725l-43 -240h-981l16 92q-47 -55 -136.5 -87t-172.5 -32q-126 0 -227 42.5t-167 118.5t-101 179t-35 226z M338 551q0 -91 30 -166t97.5 -123.5t161.5 -48.5q118 0 215 78q66 54 114 172t68 234t20 214q0 133 -55 209q-39 56 -102.5 87.5t-132.5 31.5q-72 0 -116.5 -20.5t-96.5 -63.5q-65 -53 -113.5 -166t-69 -226.5t-20.5 -211.5z" />
<glyph unicode="&#x153;" horiz-adv-x="1884" d="M47 434q0 148 51 289t150 235q63 60 155 97t195 37t200 -49.5t142 -135.5q81 98 185.5 141.5t209.5 43.5q131 0 235.5 -63t151.5 -163q32 -69 43 -121t11 -124q0 -59 -13 -132q-1 -8 -4 -19.5t-4 -16.5h-739v-21q0 -103 41 -164q30 -43 78.5 -66.5t101.5 -23.5 q87 0 156 58q38 33 65 88h254q-47 -128 -143 -218q-63 -60 -152 -96.5t-192 -36.5q-107 0 -205 49.5t-154 137.5q-154 -187 -368 -187q-192 0 -322 127q-64 62 -96.5 150t-32.5 184zM307 424q0 -87 39 -145q55 -82 164 -82q79 0 145 55t98.5 168t32.5 221q0 92 -36 145 q-55 82 -164 82q-80 0 -146 -55q-64 -54 -98.5 -169.5t-34.5 -219.5zM1044 639h490v27q0 98 -55 159q-59 62 -158 62q-92 0 -168 -64q-80 -68 -109 -184z" />
<glyph unicode="&#x178;" horiz-adv-x="1208" d="M80 1452h270l242 -641l471 641h295l-668 -895l-98 -557h-266l98 557zM387 1595l45 248h240l-45 -248h-240zM809 1595l45 248h240l-45 -248h-240z" />
<glyph unicode="&#x2c6;" horiz-adv-x="743" d="M147 1298l287 238h146l213 -252l-136 -110l-165 194l-240 -197z" />
<glyph unicode="&#x2dc;" horiz-adv-x="782" d="M147 1401q112 108 224 108q53 0 129 -35.5t108 -35.5q67 0 133 55l78 -125q-104 -104 -225 -104q-54 0 -130 33.5t-106 33.5q-73 0 -137 -53z" />
<glyph unicode="&#x2000;" horiz-adv-x="982" />
<glyph unicode="&#x2001;" horiz-adv-x="1964" />
<glyph unicode="&#x2002;" horiz-adv-x="982" />
<glyph unicode="&#x2003;" horiz-adv-x="1964" />
<glyph unicode="&#x2004;" horiz-adv-x="654" />
<glyph unicode="&#x2005;" horiz-adv-x="491" />
<glyph unicode="&#x2006;" horiz-adv-x="327" />
<glyph unicode="&#x2007;" horiz-adv-x="327" />
<glyph unicode="&#x2008;" horiz-adv-x="245" />
<glyph unicode="&#x2009;" horiz-adv-x="392" />
<glyph unicode="&#x200a;" horiz-adv-x="109" />
<glyph unicode="&#x2010;" horiz-adv-x="944" d="M84 516l41 229h702l-41 -229h-702z" />
<glyph unicode="&#x2011;" horiz-adv-x="944" d="M84 516l41 229h702l-41 -229h-702z" />
<glyph unicode="&#x2012;" horiz-adv-x="944" d="M84 516l41 229h702l-41 -229h-702z" />
<glyph unicode="&#x2013;" horiz-adv-x="1345" d="M84 516l41 229h1104l-41 -229h-1104z" />
<glyph unicode="&#x2014;" horiz-adv-x="2349" d="M84 516l39 227h2107l-39 -227h-2107z" />
<glyph unicode="&#x2018;" horiz-adv-x="542" d="M143 848l47 276q23 132 85 215.5t192 135.5l45 -119q-83 -37 -118.5 -83t-49.5 -126h145l-51 -299h-295z" />
<glyph unicode="&#x2019;" horiz-adv-x="501" d="M156 942q84 37 120 83.5t50 125.5h-148l53 301h297l-49 -278q-23 -132 -85.5 -215.5t-192.5 -135.5z" />
<glyph unicode="&#x201a;" horiz-adv-x="583" d="M14 -213q85 37 121.5 84.5t50.5 128.5h-149l53 307h301l-49 -284q-23 -135 -86.5 -220t-196.5 -137z" />
<glyph unicode="&#x201c;" horiz-adv-x="985" d="M147 846l50 276q23 133 83.5 216.5t190.5 134.5l45 -119q-84 -37 -120 -83.5t-50 -125.5h148l-54 -299h-293zM580 846l49 276q23 132 85.5 215.5t192.5 135.5l45 -119q-84 -37 -120 -83.5t-50 -125.5h146l-54 -299h-294z" />
<glyph unicode="&#x201d;" horiz-adv-x="944" d="M160 944q84 37 120 83.5t50 125.5h-146l54 299h294l-49 -276q-23 -132 -85.5 -215.5t-192.5 -135.5zM596 944q84 37 120 83.5t50 125.5h-148l54 299h293l-50 -276q-23 -133 -83.5 -216.5t-190.5 -134.5z" />
<glyph unicode="&#x201e;" horiz-adv-x="1028" d="M10 -213q85 37 121.5 84.5t50.5 128.5h-149l53 307h301l-49 -284q-23 -135 -86.5 -220t-196.5 -137zM455 -213q85 37 121.5 84.5t50.5 128.5h-150l53 307h301l-49 -284q-23 -135 -86 -220t-196 -137z" />
<glyph unicode="&#x2022;" horiz-adv-x="880" d="M125 598q0 120 84.5 204.5t204.5 84.5t204 -84.5t84 -204.5t-84 -204.5t-204 -84.5t-204.5 84.5t-84.5 204.5z" />
<glyph unicode="&#x2026;" horiz-adv-x="2041" d="M57 0l54 299h297l-54 -299h-297zM743 0l54 299h297l-54 -299h-297zM1430 0l53 299h297l-54 -299h-296z" />
<glyph unicode="&#x202f;" horiz-adv-x="392" />
<glyph unicode="&#x2039;" horiz-adv-x="686" d="M70 651l438 473l129 -123l-305 -378l166 -416l-166 -84z" />
<glyph unicode="&#x203a;" horiz-adv-x="696" d="M12 242l307 372l-165 424l165 86l263 -534l-437 -467z" />
<glyph unicode="&#x205f;" horiz-adv-x="491" />
<glyph unicode="&#x20ac;" d="M-45 487l27 150h133q2 43 14 129l2 16h-125l27 150h135q73 249 252 387q172 133 389 133q260 0 442 -176l-131 -199q-72 72 -151 107t-178 35q-133 0 -228 -80q-83 -70 -131 -207h596l-98 -150h-535q-4 -15 -8 -41q-9 -49 -12 -104h489l-98 -150h-387q13 -101 53 -157 q88 -125 258 -125q81 0 160 24.5t133 65.5l74 -211q-165 -113 -373 -113q-296 0 -453 209q-95 128 -114 307h-162z" />
<glyph unicode="&#x2122;" horiz-adv-x="1751" d="M117 1278l30 174h648l-31 -174h-225l-105 -606h-201l109 606h-225zM762 672l139 780h270l70 -494l242 494h276l-137 -780h-197l97 526l-252 -506h-150l-76 514l-88 -534h-194z" />
<glyph unicode="&#xe000;" horiz-adv-x="1064" d="M0 0v1065h1065v-1065h-1065z" />
<glyph unicode="&#xfb01;" horiz-adv-x="1343" d="M45 854l37 211h182l23 133q11 63 36.5 115.5t68 96.5t110.5 68.5t155 24.5q117 0 242 -39l-37 -204q-100 28 -182 28q-58 0 -94 -28.5t-45 -81.5l-19 -113h283l-37 -211h-285l-149 -854h-258l151 854h-182zM805 0l186 1065h262l-186 -1065h-262zM1008 1214l47 265h276 l-47 -265h-276z" />
<glyph unicode="&#xfb02;" horiz-adv-x="1380" d="M45 854l37 211h182l23 133q11 63 36.5 115.5t68 96.5t110.5 68.5t155 24.5q117 0 242 -39l-37 -204q-100 28 -182 28q-58 0 -94 -28.5t-45 -81.5l-19 -113h283l-37 -211h-285l-149 -854h-258l151 854h-182zM852 307l205 1172h258l-205 -1162q-9 -52 9.5 -77t70.5 -25 q29 0 59 6l-37 -219q-57 -14 -131 -14q-119 0 -184 71q-73 81 -45 248z" />
</font>
</defs>
</svg>
