<?xml version="1.0" encoding="UTF-8" standalone="no"?>
<svg width="27px" height="34px" viewBox="0 0 27 34" version="1.1" xmlns="http://www.w3.org/2000/svg" xmlns:xlink="http://www.w3.org/1999/xlink">
    <!-- Generator: Sketch 46.2 (44496) - http://www.bohemiancoding.com/sketch -->
    <title>Security and Performance</title>
    <desc>Created with Sketch.</desc>
    <defs></defs>
    <g id="Welcome" stroke="none" stroke-width="1" fill="none" fill-rule="evenodd">
        <g id="Customer-Support---Desktop" transform="translate(-1027.000000, -1185.000000)">
            <g id="Security-and-Performance" transform="translate(1027.000000, 1185.000000)">
                <path d="M13.5598383,0.86451401 L26.2544713,6.50580495 C26.2544713,6.50580495 26.781614,24.8417289 13.5598383,33.1273749 C0.338062656,24.8417289 0.866933682,6.50580495 0.866933682,6.50580495 L13.5598383,0.86451401 Z" id="Fill-1" fill="#EAF9F7"></path>
                <path d="M13.5598383,0.86451401 L26.2544713,6.50580495 C26.2544713,6.50580495 26.781614,24.8417289 13.5598383,33.1273749 C0.338062656,24.8417289 0.866933682,6.50580495 0.866933682,6.50580495 L13.5598383,0.86451401 Z" id="Stroke-3" stroke="#00B2A9" stroke-linecap="round" stroke-linejoin="round"></path>
                <polygon id="Fill-5" fill="#C1E5E1" points="16.2975236 23.1885748 13.5598383 21.4602381 10.8238813 23.1885748 10.8238813 11.9180913 16.2975236 11.9180913"></polygon>
                <polygon id="Stroke-7" stroke="#00B2A9" stroke-linecap="round" stroke-linejoin="round" points="16.2975236 23.1885748 13.5598383 21.4602381 10.8238813 23.1885748 10.8238813 11.9180913 16.2975236 11.9180913"></polygon>
                <path d="M18.1338813,11.9180913 C18.1338813,14.4431912 16.0858024,16.4912702 13.5607025,16.4912702 C11.0356026,16.4912702 8.9875236,14.4431912 8.9875236,11.9180913 C8.9875236,9.39299139 11.0356026,7.34491241 13.5607025,7.34491241 C16.0858024,7.34491241 18.1338813,9.39299139 18.1338813,11.9180913" id="Fill-9" fill="#FFFFFF"></path>
                <path d="M18.1338813,11.9180913 C18.1338813,14.4431912 16.0858024,16.4912702 13.5607025,16.4912702 C11.0356026,16.4912702 8.9875236,14.4431912 8.9875236,11.9180913 C8.9875236,9.39299139 11.0356026,7.34491241 13.5607025,7.34491241 C16.0858024,7.34491241 18.1338813,9.39299139 18.1338813,11.9180913 Z" id="Stroke-11" stroke="#00B2A9" stroke-linecap="round" stroke-linejoin="round"></path>
                <polyline id="Stroke-13" stroke="#00B2A9" stroke-linecap="round" stroke-linejoin="round" points="11.8315016 12.3501755 13.2539227 13.3577957 15.288175 10.4783868"></polyline>
            </g>
        </g>
    </g>
</svg>