<?xml version="1.0" encoding="UTF-8" standalone="no"?>
<svg width="34px" height="31px" viewBox="0 0 34 31" version="1.1" xmlns="http://www.w3.org/2000/svg" xmlns:xlink="http://www.w3.org/1999/xlink">
    <!-- Generator: Sketch 46.2 (44496) - http://www.bohemiancoding.com/sketch -->
    <title>Status Page</title>
    <desc>Created with Sketch.</desc>
    <defs></defs>
    <g id="Welcome" stroke="none" stroke-width="1" fill="none" fill-rule="evenodd">
        <g id="Customer-Support---Desktop" transform="translate(-383.000000, -1186.000000)">
            <g id="Status-Page" transform="translate(383.000000, 1186.000000)">
                <path d="M6.84840407,29.553845 C9.6590168,27.1696384 13.2926393,25.7253595 17.2655527,25.7253595 C21.2384661,25.7253595 24.8720886,27.1696384 27.6827013,29.553845 C31.1673109,26.5965119 33.3841645,22.1926073 33.3841645,17.2660112 C33.3841645,8.36191673 26.1673547,1.1451069 17.2655527,1.1451069 C8.36375074,1.1451069 1.1469409,8.36191673 1.1469409,17.2660112 C1.1469409,22.1926073 3.36150199,26.5965119 6.84840407,29.553845" id="Fill-1" fill="#EAF9F7"></path>
                <path d="M6.84840407,29.553845 C9.6590168,27.1696384 13.2926393,25.7253595 17.2655527,25.7253595 C21.2384661,25.7253595 24.8720886,27.1696384 27.6827013,29.553845 C31.1673109,26.5965119 33.3841645,22.1926073 33.3841645,17.2660112 C33.3841645,8.36191673 26.1673547,1.1451069 17.2655527,1.1451069 C8.36375074,1.1451069 1.1469409,8.36191673 1.1469409,17.2660112 C1.1469409,22.1926073 3.36150199,26.5965119 6.84840407,29.553845 Z" id="Stroke-3" stroke="#00B2A9"></path>
                <path d="M1.26500498,19.2006573 L4.76336959,19.2006573" id="Stroke-5" stroke="#00B2A9" stroke-linecap="round" stroke-linejoin="round"></path>
                <path d="M17.2653235,1.63065973 L17.2653235,5.12902435" id="Stroke-7" stroke="#00B2A9" stroke-linecap="round" stroke-linejoin="round"></path>
                <path d="M4.29615681,7.76838685 L6.99902174,9.99211797" id="Stroke-9" stroke="#00B2A9" stroke-linecap="round" stroke-linejoin="round"></path>
                <path d="M29.457789,7.76838685 L26.754924,9.99211797" id="Stroke-11" stroke="#00B2A9" stroke-linecap="round" stroke-linejoin="round"></path>
                <path d="M29.457789,19.2006573 L32.9561536,19.2006573" id="Stroke-13" stroke="#00B2A9" stroke-linecap="round" stroke-linejoin="round"></path>
                <polygon id="Fill-15" fill="#3DC4BE" points="19.0005215 18.3118526 17.2650942 10.5517188 15.5296669 18.3118526 17.2650942 17.4544552"></polygon>
                <polygon id="Stroke-17" stroke="#00B2A9" stroke-linecap="round" stroke-linejoin="round" points="19.0005215 18.3118526 17.2650942 10.5517188 15.5296669 18.3118526 17.2650942 17.4544552"></polygon>
                <path d="M19.4707145,19.6584708 C19.4707145,20.8757916 18.4826443,21.8638618 17.2653235,21.8638618 C16.0480026,21.8638618 15.0599324,20.8757916 15.0599324,19.6584708 C15.0599324,18.4411499 16.0480026,17.4553722 17.2653235,17.4553722 C18.4826443,17.4553722 19.4707145,18.4411499 19.4707145,19.6584708" id="Fill-19" fill="#C1E5E1"></path>
                <path d="M19.4707145,19.6584708 C19.4707145,20.8757916 18.4826443,21.8638618 17.2653235,21.8638618 C16.0480026,21.8638618 15.0599324,20.8757916 15.0599324,19.6584708 C15.0599324,18.4411499 16.0480026,17.4553722 17.2653235,17.4553722 C18.4826443,17.4553722 19.4707145,18.4411499 19.4707145,19.6584708 Z" id="Stroke-21" stroke="#00B2A9" stroke-linecap="round" stroke-linejoin="round"></path>
            </g>
        </g>
    </g>
</svg>