<?xml version="1.0" encoding="UTF-8" standalone="no"?>
<svg width="31px" height="25px" viewBox="0 0 31 25" version="1.1" xmlns="http://www.w3.org/2000/svg" xmlns:xlink="http://www.w3.org/1999/xlink">
    <!-- Generator: Sketch 46.2 (44496) - http://www.bohemiancoding.com/sketch -->
    <title>Submit a Ticket</title>
    <desc>Created with Sketch.</desc>
    <defs></defs>
    <g id="Welcome" stroke="none" stroke-width="1" fill="none" fill-rule="evenodd">
        <g id="Customer-Support---Desktop" transform="translate(-705.000000, -1189.000000)">
            <g id="Submit-a-Ticket" transform="translate(705.000000, 1189.000000)">
                <g id="Page-1">
                    <path d="M19.1043471,0.721140407 C18.851264,2.71069211 17.1567711,4.25619894 15.0797447,4.25619894 C13.0041727,4.25619894 11.3082253,2.71069211 11.0551423,0.721140407 L4.06772271,0.721140407 L4.06772271,24.0897227 L26.0917666,24.0897227 L26.0917666,0.721140407 L19.1043471,0.721140407 Z" id="Fill-1" fill="#C1E5E1"></path>
                    <path d="M19.1043471,0.721140407 C18.851264,2.71069211 17.1567711,4.25619894 15.0797447,4.25619894 C13.0041727,4.25619894 11.3082253,2.71069211 11.0551423,0.721140407 L4.06772271,0.721140407 L4.06772271,24.0897227 L26.0917666,24.0897227 L26.0917666,0.721140407 L19.1043471,0.721140407 Z" id="Stroke-3" stroke="#00B2A9" stroke-linecap="round" stroke-linejoin="round"></path>
                    <path d="M5.42578966,9.13622326 L26.0913303,9.13622326" id="Stroke-5" stroke="#00B2A9" stroke-linecap="round" stroke-linejoin="round" stroke-dasharray="1,2"></path>
                    <path d="M9.68558476,18.7036602 L20.4736137,18.7036602" id="Stroke-7" stroke="#00B2A9" stroke-linecap="round" stroke-linejoin="round"></path>
                    <path d="M0.779211633,24.0897227 L29.7373032,24.0897227" id="Stroke-7-Copy" stroke="#00B2A9" stroke-linecap="round" stroke-linejoin="round"></path>
                </g>
            </g>
        </g>
    </g>
</svg>