<?xml version="1.0" encoding="UTF-8" standalone="no"?>
<svg width="35px" height="25px" viewBox="0 0 35 25" version="1.1" xmlns="http://www.w3.org/2000/svg" xmlns:xlink="http://www.w3.org/1999/xlink">
    <!-- Generator: Sketch 46.2 (44496) - http://www.bohemiancoding.com/sketch -->
    <title>Video Tutorials</title>
    <desc>Created with Sketch.</desc>
    <defs></defs>
    <g id="Welcome" stroke="none" stroke-width="1" fill="none" fill-rule="evenodd">
        <g id="Customer-Support---Desktop" transform="translate(-384.000000, -815.000000)">
            <g id="Video-Tutorials" transform="translate(385.000000, 816.000000)">
                <path d="M30.1748469,23.4682807 L2.71225616,23.4682807 C1.28353644,23.4682807 0.114583933,22.2993282 0.114583933,20.8706085 L0.114583933,2.7128796 C0.114583933,1.28415988 1.28353644,0.115207374 2.71225616,0.115207374 L30.1748469,0.115207374 C31.6035667,0.115207374 32.7725192,1.28415988 32.7725192,2.7128796 L32.7725192,20.8706085 C32.7725192,22.2993282 31.6035667,23.4682807 30.1748469,23.4682807" id="Fill-1" fill="#EAF9F7"></path>
                <path d="M30.1748469,23.4682807 L2.71225616,23.4682807 C1.28353644,23.4682807 0.114583933,22.2993282 0.114583933,20.8706085 L0.114583933,2.7128796 C0.114583933,1.28415988 1.28353644,0.115207374 2.71225616,0.115207374 L30.1748469,0.115207374 C31.6035667,0.115207374 32.7725192,1.28415988 32.7725192,2.7128796 L32.7725192,20.8706085 C32.7725192,22.2993282 31.6035667,23.4682807 30.1748469,23.4682807 Z" id="Stroke-3" stroke="#00B2A9"></path>
                <polygon id="Fill-5" fill="#FFFFFF" points="21.4051055 11.7914843 13.1263241 7.95991773 13.1263241 15.6230508"></polygon>
                <polygon id="Stroke-7" stroke="#3DC4BE" stroke-linecap="round" stroke-linejoin="round" points="21.4051055 11.7914843 13.1263241 7.95991773 13.1263241 15.6230508"></polygon>
            </g>
        </g>
    </g>
</svg>