<?xml version="1.0" encoding="UTF-8" standalone="no"?>
<svg width="41px" height="28px" viewBox="0 0 41 28" version="1.1" xmlns="http://www.w3.org/2000/svg" xmlns:xlink="http://www.w3.org/1999/xlink">
    <!-- Generator: Sketch 46.2 (44496) - http://www.bohemiancoding.com/sketch -->
    <title>Webinars</title>
    <desc>Created with Sketch.</desc>
    <defs></defs>
    <g id="Welcome" stroke="none" stroke-width="1" fill="none" fill-rule="evenodd">
        <g id="Customer-Support---Desktop" transform="translate(-700.000000, -814.000000)">
            <g id="Webinars" transform="translate(700.000000, 814.000000)">
                <path d="M36.0095125,25.4984089 L4.86665536,25.4984089 C3.79417321,25.4984089 2.92022679,24.6225161 2.92022679,23.5519804 L2.92022679,2.9198375 C2.92022679,1.84930179 3.79417321,0.973408929 4.86665536,0.973408929 L36.0095125,0.973408929 C37.0800482,0.973408929 37.9559411,1.84930179 37.9559411,2.9198375 L37.9559411,23.5519804 C37.9559411,24.6225161 37.0800482,25.4984089 36.0095125,25.4984089" id="Fill-1" fill="#FFFFFF"></path>
                <path d="M36.0095125,25.4984089 L4.86665536,25.4984089 C3.79417321,25.4984089 2.92022679,24.6225161 2.92022679,23.5519804 L2.92022679,2.9198375 C2.92022679,1.84930179 3.79417321,0.973408929 4.86665536,0.973408929 L36.0095125,0.973408929 C37.0800482,0.973408929 37.9559411,1.84930179 37.9559411,2.9198375 L37.9559411,23.5519804 C37.9559411,24.6225161 37.0800482,25.4984089 36.0095125,25.4984089 Z" id="Stroke-3" stroke="#00B2A9" stroke-linecap="round" stroke-linejoin="round"></path>
                <g id="Group-8" transform="translate(6.839286, 5.476786)">
                    <polyline id="Fill-5" fill="#C1E5E1" points="0.199973214 19.4371107 0.199973214 0.134378571 26.9964554 0.134378571 26.9964554 19.4371107"></polyline>
                    <polyline id="Stroke-7" stroke="#00B2A9" points="0.199973214 19.4371107 0.199973214 0.134378571 26.9964554 0.134378571 26.9964554 19.4371107"></polyline>
                </g>
                <path d="M26.1804375,22.9674679 L25.7094018,24.1839857 L15.1655982,24.1839857 L14.6965089,22.9674679 L0.9741875,22.9674679 L0.9741875,24.9138964 C0.9741875,25.9844321 1.84813393,26.860325 2.92061607,26.860325 L37.9563304,26.860325 C39.0268661,26.860325 39.9027589,25.9844321 39.9027589,24.9138964 L39.9027589,22.9674679 L26.1804375,22.9674679 Z" id="Fill-9" fill="#FFFFFF"></path>
                <path d="M26.1804375,22.9674679 L25.7094018,24.1839857 L15.1655982,24.1839857 L14.6965089,22.9674679 L0.9741875,22.9674679 L0.9741875,24.9138964 C0.9741875,25.9844321 1.84813393,26.860325 2.92061607,26.860325 L37.9563304,26.860325 C39.0268661,26.860325 39.9027589,25.9844321 39.9027589,24.9138964 L39.9027589,22.9674679 L26.1804375,22.9674679 Z" id="Stroke-11" stroke="#00B2A9" stroke-linecap="round" stroke-linejoin="round"></path>
                <path d="M14.3251304,14.238125 L14.3251304,17.331 C14.3251304,18.352875 17.1766482,19.1820536 20.6918982,19.1820536 C24.2090946,19.1820536 27.0606125,18.352875 27.0606125,17.331 L27.0606125,14.238125 L14.3251304,14.238125 Z" id="Fill-13" fill="#FFFFFF"></path>
                <path d="M14.3251304,14.238125 L14.3251304,17.331 C14.3251304,18.352875 17.1766482,19.1820536 20.6918982,19.1820536 C24.2090946,19.1820536 27.0606125,18.352875 27.0606125,17.331 L27.0606125,14.238125 L14.3251304,14.238125 Z" id="Stroke-15" stroke="#3DC4BE" stroke-linecap="round" stroke-linejoin="round"></path>
                <polygon id="Fill-17" fill="#FFFFFF" points="20.6928714 16.7100893 12.570425 13.2863214 20.6928714 9.86255357 28.8153179 13.2863214"></polygon>
                <polygon id="Stroke-19" stroke="#3DC4BE" stroke-linecap="round" stroke-linejoin="round" points="20.6928714 16.7100893 12.570425 13.2863214 20.6928714 9.86255357 28.8153179 13.2863214"></polygon>
                <polyline id="Stroke-21" stroke="#3DC4BE" stroke-width="0.75" stroke-linecap="round" stroke-linejoin="round" points="20.6928714 13.2867107 24.6207643 15.0540679 24.6207643 20.663675"></polyline>
            </g>
        </g>
    </g>
</svg>